<mxfile host="app.diagrams.net" modified="2023-12-09T15:58:52.566Z" agent="Mozilla/5.0 (Macintosh; Intel Mac OS X 10_15_7) AppleWebKit/537.36 (KHTML, like Gecko) Chrome/119.0.0.0 Safari/537.36" etag="kHM-2zwMlhdG4fetGucm" version="22.1.7" type="device" pages="3">
  <diagram name="Page-1" id="HZ9nQ4N-joQOz3ufx2Zg">
    <mxGraphModel dx="596" dy="423" grid="0" gridSize="10" guides="1" tooltips="1" connect="1" arrows="1" fold="1" page="0" pageScale="1" pageWidth="827" pageHeight="1169" math="0" shadow="0">
      <root>
        <mxCell id="0" />
        <mxCell id="1" parent="0" />
        <mxCell id="6_1T0fNzaUE3SZ0l_4bJ-7" style="edgeStyle=orthogonalEdgeStyle;rounded=0;orthogonalLoop=1;jettySize=auto;html=1;exitX=0.5;exitY=1;exitDx=0;exitDy=0;entryX=0.5;entryY=0;entryDx=0;entryDy=0;" parent="1" source="6_1T0fNzaUE3SZ0l_4bJ-1" target="6_1T0fNzaUE3SZ0l_4bJ-2" edge="1">
          <mxGeometry relative="1" as="geometry" />
        </mxCell>
        <mxCell id="6_1T0fNzaUE3SZ0l_4bJ-1" value="1" style="ellipse;whiteSpace=wrap;html=1;aspect=fixed;&#xa;color=#ff0000;shadow=1;strokeColor=#33FF33;" parent="1" vertex="1">
          <mxGeometry x="357" y="90" width="28" height="28" as="geometry" />
        </mxCell>
        <mxCell id="6_1T0fNzaUE3SZ0l_4bJ-8" style="edgeStyle=orthogonalEdgeStyle;rounded=0;orthogonalLoop=1;jettySize=auto;html=1;exitX=0.5;exitY=1;exitDx=0;exitDy=0;entryX=0.5;entryY=0;entryDx=0;entryDy=0;" parent="1" source="6_1T0fNzaUE3SZ0l_4bJ-2" target="6_1T0fNzaUE3SZ0l_4bJ-3" edge="1">
          <mxGeometry relative="1" as="geometry" />
        </mxCell>
        <mxCell id="6_1T0fNzaUE3SZ0l_4bJ-2" value="2" style="ellipse;whiteSpace=wrap;html=1;aspect=fixed;" parent="1" vertex="1">
          <mxGeometry x="357" y="135" width="28" height="28" as="geometry" />
        </mxCell>
        <mxCell id="6_1T0fNzaUE3SZ0l_4bJ-16" style="edgeStyle=orthogonalEdgeStyle;rounded=0;orthogonalLoop=1;jettySize=auto;html=1;exitX=1;exitY=0.5;exitDx=0;exitDy=0;entryX=0;entryY=0.5;entryDx=0;entryDy=0;" parent="1" source="6_1T0fNzaUE3SZ0l_4bJ-3" target="6_1T0fNzaUE3SZ0l_4bJ-11" edge="1">
          <mxGeometry relative="1" as="geometry" />
        </mxCell>
        <mxCell id="6_1T0fNzaUE3SZ0l_4bJ-20" style="edgeStyle=orthogonalEdgeStyle;rounded=0;orthogonalLoop=1;jettySize=auto;html=1;exitX=0;exitY=0.5;exitDx=0;exitDy=0;entryX=0.5;entryY=0;entryDx=0;entryDy=0;" parent="1" source="6_1T0fNzaUE3SZ0l_4bJ-3" target="6_1T0fNzaUE3SZ0l_4bJ-4" edge="1">
          <mxGeometry relative="1" as="geometry" />
        </mxCell>
        <mxCell id="6_1T0fNzaUE3SZ0l_4bJ-3" value="2&#39;" style="ellipse;whiteSpace=wrap;html=1;aspect=fixed;" parent="1" vertex="1">
          <mxGeometry x="357" y="188" width="28" height="28" as="geometry" />
        </mxCell>
        <mxCell id="6_1T0fNzaUE3SZ0l_4bJ-10" style="edgeStyle=orthogonalEdgeStyle;rounded=0;orthogonalLoop=1;jettySize=auto;html=1;exitX=0.5;exitY=1;exitDx=0;exitDy=0;entryX=0.5;entryY=0;entryDx=0;entryDy=0;" parent="1" source="6_1T0fNzaUE3SZ0l_4bJ-4" target="6_1T0fNzaUE3SZ0l_4bJ-5" edge="1">
          <mxGeometry relative="1" as="geometry" />
        </mxCell>
        <mxCell id="6_1T0fNzaUE3SZ0l_4bJ-4" value="9" style="ellipse;whiteSpace=wrap;html=1;aspect=fixed;" parent="1" vertex="1">
          <mxGeometry x="286" y="229" width="28" height="28" as="geometry" />
        </mxCell>
        <mxCell id="6_1T0fNzaUE3SZ0l_4bJ-5" value="End" style="ellipse;whiteSpace=wrap;html=1;aspect=fixed;strokeColor=#CC0000;" parent="1" vertex="1">
          <mxGeometry x="286" y="290" width="28" height="28" as="geometry" />
        </mxCell>
        <mxCell id="6_1T0fNzaUE3SZ0l_4bJ-17" style="edgeStyle=orthogonalEdgeStyle;rounded=0;orthogonalLoop=1;jettySize=auto;html=1;exitX=1;exitY=0.5;exitDx=0;exitDy=0;entryX=0;entryY=0.5;entryDx=0;entryDy=0;" parent="1" source="6_1T0fNzaUE3SZ0l_4bJ-11" target="6_1T0fNzaUE3SZ0l_4bJ-12" edge="1">
          <mxGeometry relative="1" as="geometry" />
        </mxCell>
        <mxCell id="6_1T0fNzaUE3SZ0l_4bJ-11" value="3" style="ellipse;whiteSpace=wrap;html=1;aspect=fixed;" parent="1" vertex="1">
          <mxGeometry x="447" y="188" width="28" height="28" as="geometry" />
        </mxCell>
        <mxCell id="6_1T0fNzaUE3SZ0l_4bJ-19" style="edgeStyle=orthogonalEdgeStyle;rounded=0;orthogonalLoop=1;jettySize=auto;html=1;exitX=0.5;exitY=1;exitDx=0;exitDy=0;entryX=1;entryY=0.5;entryDx=0;entryDy=0;" parent="1" source="6_1T0fNzaUE3SZ0l_4bJ-12" target="6_1T0fNzaUE3SZ0l_4bJ-18" edge="1">
          <mxGeometry relative="1" as="geometry" />
        </mxCell>
        <mxCell id="6_1T0fNzaUE3SZ0l_4bJ-22" style="edgeStyle=orthogonalEdgeStyle;rounded=0;orthogonalLoop=1;jettySize=auto;html=1;exitX=1;exitY=0.5;exitDx=0;exitDy=0;entryX=0.5;entryY=0;entryDx=0;entryDy=0;" parent="1" source="6_1T0fNzaUE3SZ0l_4bJ-12" target="6_1T0fNzaUE3SZ0l_4bJ-13" edge="1">
          <mxGeometry relative="1" as="geometry" />
        </mxCell>
        <mxCell id="6_1T0fNzaUE3SZ0l_4bJ-12" value="3&#39;" style="ellipse;whiteSpace=wrap;html=1;aspect=fixed;" parent="1" vertex="1">
          <mxGeometry x="498" y="188" width="28" height="28" as="geometry" />
        </mxCell>
        <mxCell id="6_1T0fNzaUE3SZ0l_4bJ-23" style="edgeStyle=orthogonalEdgeStyle;rounded=0;orthogonalLoop=1;jettySize=auto;html=1;exitX=0.5;exitY=1;exitDx=0;exitDy=0;entryX=0.5;entryY=0;entryDx=0;entryDy=0;" parent="1" source="6_1T0fNzaUE3SZ0l_4bJ-13" target="6_1T0fNzaUE3SZ0l_4bJ-14" edge="1">
          <mxGeometry relative="1" as="geometry" />
        </mxCell>
        <mxCell id="6_1T0fNzaUE3SZ0l_4bJ-13" value="4" style="ellipse;whiteSpace=wrap;html=1;aspect=fixed;" parent="1" vertex="1">
          <mxGeometry x="550" y="239" width="28" height="28" as="geometry" />
        </mxCell>
        <mxCell id="6_1T0fNzaUE3SZ0l_4bJ-28" style="edgeStyle=orthogonalEdgeStyle;rounded=0;orthogonalLoop=1;jettySize=auto;html=1;exitX=1;exitY=0.5;exitDx=0;exitDy=0;entryX=0.5;entryY=1;entryDx=0;entryDy=0;" parent="1" source="6_1T0fNzaUE3SZ0l_4bJ-14" target="6_1T0fNzaUE3SZ0l_4bJ-27" edge="1">
          <mxGeometry relative="1" as="geometry" />
        </mxCell>
        <mxCell id="6_1T0fNzaUE3SZ0l_4bJ-41" style="edgeStyle=orthogonalEdgeStyle;rounded=0;orthogonalLoop=1;jettySize=auto;html=1;exitX=0;exitY=0.5;exitDx=0;exitDy=0;entryX=1;entryY=0.5;entryDx=0;entryDy=0;" parent="1" source="6_1T0fNzaUE3SZ0l_4bJ-14" target="6_1T0fNzaUE3SZ0l_4bJ-15" edge="1">
          <mxGeometry relative="1" as="geometry" />
        </mxCell>
        <mxCell id="6_1T0fNzaUE3SZ0l_4bJ-14" value="5" style="ellipse;whiteSpace=wrap;html=1;aspect=fixed;" parent="1" vertex="1">
          <mxGeometry x="550" y="290" width="28" height="28" as="geometry" />
        </mxCell>
        <mxCell id="6_1T0fNzaUE3SZ0l_4bJ-40" style="edgeStyle=orthogonalEdgeStyle;rounded=0;orthogonalLoop=1;jettySize=auto;html=1;exitX=0;exitY=0.5;exitDx=0;exitDy=0;entryX=1;entryY=0.5;entryDx=0;entryDy=0;" parent="1" source="6_1T0fNzaUE3SZ0l_4bJ-15" target="6_1T0fNzaUE3SZ0l_4bJ-5" edge="1">
          <mxGeometry relative="1" as="geometry" />
        </mxCell>
        <mxCell id="6_1T0fNzaUE3SZ0l_4bJ-15" value="6" style="ellipse;whiteSpace=wrap;html=1;aspect=fixed;" parent="1" vertex="1">
          <mxGeometry x="457" y="290" width="28" height="28" as="geometry" />
        </mxCell>
        <mxCell id="6_1T0fNzaUE3SZ0l_4bJ-21" style="edgeStyle=orthogonalEdgeStyle;rounded=0;orthogonalLoop=1;jettySize=auto;html=1;exitX=0;exitY=0.5;exitDx=0;exitDy=0;entryX=0.5;entryY=1;entryDx=0;entryDy=0;" parent="1" source="6_1T0fNzaUE3SZ0l_4bJ-18" target="6_1T0fNzaUE3SZ0l_4bJ-3" edge="1">
          <mxGeometry relative="1" as="geometry" />
        </mxCell>
        <mxCell id="6_1T0fNzaUE3SZ0l_4bJ-18" value="2&#39;&#39;" style="ellipse;whiteSpace=wrap;html=1;aspect=fixed;" parent="1" vertex="1">
          <mxGeometry x="447" y="239" width="28" height="28" as="geometry" />
        </mxCell>
        <mxCell id="6_1T0fNzaUE3SZ0l_4bJ-29" style="edgeStyle=orthogonalEdgeStyle;rounded=0;orthogonalLoop=1;jettySize=auto;html=1;exitX=0.5;exitY=0;exitDx=0;exitDy=0;entryX=0.5;entryY=0;entryDx=0;entryDy=0;" parent="1" source="6_1T0fNzaUE3SZ0l_4bJ-27" target="6_1T0fNzaUE3SZ0l_4bJ-12" edge="1">
          <mxGeometry relative="1" as="geometry" />
        </mxCell>
        <mxCell id="6_1T0fNzaUE3SZ0l_4bJ-27" value="3&#39;&#39;" style="ellipse;whiteSpace=wrap;html=1;aspect=fixed;" parent="1" vertex="1">
          <mxGeometry x="624" y="204" width="28" height="28" as="geometry" />
        </mxCell>
        <mxCell id="6_1T0fNzaUE3SZ0l_4bJ-30" value="&lt;div style=&quot;color: rgb(255, 255, 255); background-color: rgb(25, 24, 48); font-family: Menlo, Monaco, &amp;quot;Courier New&amp;quot;, monospace; line-height: 18px;&quot;&gt;&lt;font style=&quot;font-size: 4px;&quot;&gt;currentRow &amp;gt;= dimension&lt;/font&gt;&lt;/div&gt;" style="text;html=1;strokeColor=none;fillColor=none;align=center;verticalAlign=middle;whiteSpace=wrap;rounded=0;" parent="1" vertex="1">
          <mxGeometry x="297" y="178" width="60" height="26" as="geometry" />
        </mxCell>
        <mxCell id="6_1T0fNzaUE3SZ0l_4bJ-31" value="&lt;div style=&quot;color: rgb(255, 255, 255); background-color: rgb(25, 24, 48); font-family: Menlo, Monaco, &amp;quot;Courier New&amp;quot;, monospace; line-height: 18px;&quot;&gt;&lt;font style=&quot;font-size: 4px;&quot;&gt;currentRow &amp;gt;= dimension&lt;/font&gt;&lt;/div&gt;" style="text;html=1;strokeColor=none;fillColor=none;align=center;verticalAlign=middle;whiteSpace=wrap;rounded=0;" parent="1" vertex="1">
          <mxGeometry x="367" y="175" width="90" height="26" as="geometry" />
        </mxCell>
        <mxCell id="6_1T0fNzaUE3SZ0l_4bJ-33" value="&lt;div style=&quot;color: rgb(255, 255, 255); background-color: rgb(25, 24, 48); font-family: Menlo, Monaco, &amp;quot;Courier New&amp;quot;, monospace; line-height: 18px;&quot;&gt;&lt;font style=&quot;font-size: 4px;&quot;&gt;currentColumn &amp;lt; dimension&lt;/font&gt;&lt;/div&gt;" style="text;html=1;align=center;verticalAlign=middle;resizable=0;points=[];autosize=1;strokeColor=none;fillColor=none;" parent="1" vertex="1">
          <mxGeometry x="521" y="171" width="78" height="33" as="geometry" />
        </mxCell>
        <mxCell id="6_1T0fNzaUE3SZ0l_4bJ-34" value="&lt;div style=&quot;color: rgb(255, 255, 255); background-color: rgb(25, 24, 48); font-family: Menlo, Monaco, &amp;quot;Courier New&amp;quot;, monospace; line-height: 18px;&quot;&gt;&lt;font style=&quot;font-size: 4px;&quot;&gt;currentColumn &amp;gt;= dimension&lt;/font&gt;&lt;/div&gt;" style="text;html=1;align=center;verticalAlign=middle;resizable=0;points=[];autosize=1;strokeColor=none;fillColor=none;" parent="1" vertex="1">
          <mxGeometry x="436" y="210" width="81" height="33" as="geometry" />
        </mxCell>
        <mxCell id="6_1T0fNzaUE3SZ0l_4bJ-35" value="&lt;div style=&quot;color: rgb(255, 255, 255); background-color: rgb(25, 24, 48); font-family: Menlo, Monaco, &amp;quot;Courier New&amp;quot;, monospace; line-height: 18px;&quot;&gt;&lt;font style=&quot;font-size: 4px;&quot;&gt;!&lt;span style=&quot;color: #9effff;&quot;&gt;candidate&lt;/span&gt;&lt;span style=&quot;color: #e1efff;&quot;&gt;.&lt;/span&gt;&lt;span style=&quot;color: #fad000;&quot;&gt;isSolved&lt;/span&gt;&lt;/font&gt;&lt;/div&gt;" style="text;html=1;align=center;verticalAlign=middle;resizable=0;points=[];autosize=1;strokeColor=none;fillColor=none;" parent="1" vertex="1">
          <mxGeometry x="563" y="310" width="64" height="33" as="geometry" />
        </mxCell>
        <mxCell id="6_1T0fNzaUE3SZ0l_4bJ-36" value="&lt;div style=&quot;color: rgb(255, 255, 255); background-color: rgb(25, 24, 48); font-family: Menlo, Monaco, &amp;quot;Courier New&amp;quot;, monospace; line-height: 18px;&quot;&gt;&lt;font style=&quot;font-size: 4px;&quot;&gt;&lt;span style=&quot;color: #9effff;&quot;&gt;candidate&lt;/span&gt;&lt;span style=&quot;color: #e1efff;&quot;&gt;.&lt;/span&gt;&lt;span style=&quot;color: #fad000;&quot;&gt;isSolved&lt;/span&gt;&lt;/font&gt;&lt;/div&gt;" style="text;html=1;align=center;verticalAlign=middle;resizable=0;points=[];autosize=1;strokeColor=none;fillColor=none;" parent="1" vertex="1">
          <mxGeometry x="574" y="275" width="61" height="33" as="geometry" />
        </mxCell>
        <mxCell id="6_1T0fNzaUE3SZ0l_4bJ-49" style="edgeStyle=orthogonalEdgeStyle;rounded=0;orthogonalLoop=1;jettySize=auto;html=1;exitX=0.5;exitY=1;exitDx=0;exitDy=0;entryX=0.5;entryY=0;entryDx=0;entryDy=0;" parent="1" source="6_1T0fNzaUE3SZ0l_4bJ-39" target="6_1T0fNzaUE3SZ0l_4bJ-44" edge="1">
          <mxGeometry relative="1" as="geometry">
            <mxPoint x="431.5000000000001" y="590.0000000000001" as="targetPoint" />
          </mxGeometry>
        </mxCell>
        <mxCell id="6_1T0fNzaUE3SZ0l_4bJ-39" value="1" style="ellipse;whiteSpace=wrap;html=1;aspect=fixed;strokeColor=#00CC00;" parent="1" vertex="1">
          <mxGeometry x="416.5" y="564" width="28" height="28" as="geometry" />
        </mxCell>
        <mxCell id="6_1T0fNzaUE3SZ0l_4bJ-66" style="edgeStyle=orthogonalEdgeStyle;rounded=0;orthogonalLoop=1;jettySize=auto;html=1;exitX=0.5;exitY=1;exitDx=0;exitDy=0;entryX=0.5;entryY=0;entryDx=0;entryDy=0;" parent="1" source="6_1T0fNzaUE3SZ0l_4bJ-44" target="6_1T0fNzaUE3SZ0l_4bJ-45" edge="1">
          <mxGeometry relative="1" as="geometry">
            <mxPoint x="430.5" y="652" as="targetPoint" />
          </mxGeometry>
        </mxCell>
        <mxCell id="6_1T0fNzaUE3SZ0l_4bJ-44" value="5" style="ellipse;whiteSpace=wrap;html=1;aspect=fixed;" parent="1" vertex="1">
          <mxGeometry x="416.5" y="617" width="28" height="28" as="geometry" />
        </mxCell>
        <mxCell id="6_1T0fNzaUE3SZ0l_4bJ-54" style="edgeStyle=orthogonalEdgeStyle;rounded=0;orthogonalLoop=1;jettySize=auto;html=1;exitX=1;exitY=0.5;exitDx=0;exitDy=0;entryX=0;entryY=0.5;entryDx=0;entryDy=0;" parent="1" source="6_1T0fNzaUE3SZ0l_4bJ-45" target="6_1T0fNzaUE3SZ0l_4bJ-53" edge="1">
          <mxGeometry relative="1" as="geometry" />
        </mxCell>
        <mxCell id="6_1T0fNzaUE3SZ0l_4bJ-115" style="edgeStyle=orthogonalEdgeStyle;rounded=0;orthogonalLoop=1;jettySize=auto;html=1;exitX=0;exitY=0.5;exitDx=0;exitDy=0;entryX=1;entryY=0.5;entryDx=0;entryDy=0;" parent="1" source="6_1T0fNzaUE3SZ0l_4bJ-45" target="6_1T0fNzaUE3SZ0l_4bJ-46" edge="1">
          <mxGeometry relative="1" as="geometry" />
        </mxCell>
        <mxCell id="6_1T0fNzaUE3SZ0l_4bJ-45" value="5&#39;" style="ellipse;whiteSpace=wrap;html=1;aspect=fixed;" parent="1" vertex="1">
          <mxGeometry x="416.5" y="655" width="28" height="28" as="geometry" />
        </mxCell>
        <mxCell id="6_1T0fNzaUE3SZ0l_4bJ-116" style="edgeStyle=orthogonalEdgeStyle;rounded=0;orthogonalLoop=1;jettySize=auto;html=1;exitX=0.5;exitY=0;exitDx=0;exitDy=0;entryX=0.5;entryY=1;entryDx=0;entryDy=0;" parent="1" source="6_1T0fNzaUE3SZ0l_4bJ-46" target="6_1T0fNzaUE3SZ0l_4bJ-47" edge="1">
          <mxGeometry relative="1" as="geometry" />
        </mxCell>
        <mxCell id="6_1T0fNzaUE3SZ0l_4bJ-46" value="17" style="ellipse;whiteSpace=wrap;html=1;aspect=fixed;" parent="1" vertex="1">
          <mxGeometry x="375.5" y="655" width="28" height="28" as="geometry" />
        </mxCell>
        <mxCell id="6_1T0fNzaUE3SZ0l_4bJ-47" value="End" style="ellipse;whiteSpace=wrap;html=1;aspect=fixed;strokeColor=#CC0000;" parent="1" vertex="1">
          <mxGeometry x="375.5" y="564" width="28" height="28" as="geometry" />
        </mxCell>
        <mxCell id="6_1T0fNzaUE3SZ0l_4bJ-58" style="edgeStyle=orthogonalEdgeStyle;rounded=0;orthogonalLoop=1;jettySize=auto;html=1;exitX=1;exitY=0.5;exitDx=0;exitDy=0;entryX=0;entryY=0.5;entryDx=0;entryDy=0;" parent="1" source="6_1T0fNzaUE3SZ0l_4bJ-53" target="6_1T0fNzaUE3SZ0l_4bJ-55" edge="1">
          <mxGeometry relative="1" as="geometry" />
        </mxCell>
        <mxCell id="6_1T0fNzaUE3SZ0l_4bJ-113" style="edgeStyle=orthogonalEdgeStyle;rounded=0;orthogonalLoop=1;jettySize=auto;html=1;exitX=0.5;exitY=1;exitDx=0;exitDy=0;entryX=0.5;entryY=0;entryDx=0;entryDy=0;" parent="1" source="6_1T0fNzaUE3SZ0l_4bJ-53" target="6_1T0fNzaUE3SZ0l_4bJ-68" edge="1">
          <mxGeometry relative="1" as="geometry" />
        </mxCell>
        <mxCell id="6_1T0fNzaUE3SZ0l_4bJ-53" value="6" style="ellipse;whiteSpace=wrap;html=1;aspect=fixed;" parent="1" vertex="1">
          <mxGeometry x="508.5" y="655" width="28" height="28" as="geometry" />
        </mxCell>
        <mxCell id="6_1T0fNzaUE3SZ0l_4bJ-114" style="edgeStyle=orthogonalEdgeStyle;rounded=0;orthogonalLoop=1;jettySize=auto;html=1;exitX=0.5;exitY=1;exitDx=0;exitDy=0;entryX=1;entryY=0.5;entryDx=0;entryDy=0;" parent="1" source="6_1T0fNzaUE3SZ0l_4bJ-55" target="6_1T0fNzaUE3SZ0l_4bJ-68" edge="1">
          <mxGeometry relative="1" as="geometry" />
        </mxCell>
        <mxCell id="6_1T0fNzaUE3SZ0l_4bJ-55" value="10&lt;br&gt;" style="ellipse;whiteSpace=wrap;html=1;aspect=fixed;" parent="1" vertex="1">
          <mxGeometry x="564.5" y="655" width="28" height="28" as="geometry" />
        </mxCell>
        <mxCell id="6_1T0fNzaUE3SZ0l_4bJ-61" style="edgeStyle=orthogonalEdgeStyle;rounded=0;orthogonalLoop=1;jettySize=auto;html=1;exitX=0.5;exitY=1;exitDx=0;exitDy=0;entryX=0.5;entryY=0;entryDx=0;entryDy=0;" parent="1" source="6_1T0fNzaUE3SZ0l_4bJ-56" target="6_1T0fNzaUE3SZ0l_4bJ-60" edge="1">
          <mxGeometry relative="1" as="geometry" />
        </mxCell>
        <mxCell id="6_1T0fNzaUE3SZ0l_4bJ-65" style="edgeStyle=orthogonalEdgeStyle;rounded=0;orthogonalLoop=1;jettySize=auto;html=1;exitX=0;exitY=0.5;exitDx=0;exitDy=0;entryX=1;entryY=0.5;entryDx=0;entryDy=0;" parent="1" source="6_1T0fNzaUE3SZ0l_4bJ-56" target="6_1T0fNzaUE3SZ0l_4bJ-62" edge="1">
          <mxGeometry relative="1" as="geometry" />
        </mxCell>
        <mxCell id="6_1T0fNzaUE3SZ0l_4bJ-56" value="13" style="ellipse;whiteSpace=wrap;html=1;aspect=fixed;" parent="1" vertex="1">
          <mxGeometry x="460" y="704" width="28" height="28" as="geometry" />
        </mxCell>
        <mxCell id="6_1T0fNzaUE3SZ0l_4bJ-63" style="edgeStyle=orthogonalEdgeStyle;rounded=0;orthogonalLoop=1;jettySize=auto;html=1;exitX=0;exitY=0.5;exitDx=0;exitDy=0;entryX=0.5;entryY=1;entryDx=0;entryDy=0;" parent="1" source="6_1T0fNzaUE3SZ0l_4bJ-60" target="6_1T0fNzaUE3SZ0l_4bJ-62" edge="1">
          <mxGeometry relative="1" as="geometry" />
        </mxCell>
        <mxCell id="6_1T0fNzaUE3SZ0l_4bJ-60" value="14" style="ellipse;whiteSpace=wrap;html=1;aspect=fixed;" parent="1" vertex="1">
          <mxGeometry x="460" y="745" width="28" height="28" as="geometry" />
        </mxCell>
        <mxCell id="6_1T0fNzaUE3SZ0l_4bJ-64" style="edgeStyle=orthogonalEdgeStyle;rounded=0;orthogonalLoop=1;jettySize=auto;html=1;exitX=0.5;exitY=0;exitDx=0;exitDy=0;entryX=0.5;entryY=1;entryDx=0;entryDy=0;" parent="1" source="6_1T0fNzaUE3SZ0l_4bJ-62" target="6_1T0fNzaUE3SZ0l_4bJ-45" edge="1">
          <mxGeometry relative="1" as="geometry" />
        </mxCell>
        <mxCell id="6_1T0fNzaUE3SZ0l_4bJ-62" value="5&#39;&#39;" style="ellipse;whiteSpace=wrap;html=1;aspect=fixed;" parent="1" vertex="1">
          <mxGeometry x="416.5" y="704" width="28" height="28" as="geometry" />
        </mxCell>
        <mxCell id="6_1T0fNzaUE3SZ0l_4bJ-70" style="edgeStyle=orthogonalEdgeStyle;rounded=0;orthogonalLoop=1;jettySize=auto;html=1;exitX=0;exitY=0.5;exitDx=0;exitDy=0;entryX=1;entryY=0.5;entryDx=0;entryDy=0;" parent="1" source="6_1T0fNzaUE3SZ0l_4bJ-68" target="6_1T0fNzaUE3SZ0l_4bJ-56" edge="1">
          <mxGeometry relative="1" as="geometry" />
        </mxCell>
        <mxCell id="6_1T0fNzaUE3SZ0l_4bJ-68" value="12" style="ellipse;whiteSpace=wrap;html=1;aspect=fixed;" parent="1" vertex="1">
          <mxGeometry x="508.5" y="704" width="28" height="28" as="geometry" />
        </mxCell>
        <mxCell id="6_1T0fNzaUE3SZ0l_4bJ-71" value="&lt;font style=&quot;font-size: 9px;&quot;&gt;d&lt;/font&gt;&lt;font style=&quot;font-size: 4px;&quot;&gt;currentRow&lt;/font&gt;" style="text;html=1;align=center;verticalAlign=middle;resizable=0;points=[];autosize=1;strokeColor=none;fillColor=none;" parent="1" vertex="1">
          <mxGeometry x="778" y="131" width="43" height="26" as="geometry" />
        </mxCell>
        <mxCell id="6_1T0fNzaUE3SZ0l_4bJ-72" value="&lt;font style=&quot;&quot;&gt;&lt;font style=&quot;font-size: 9px;&quot;&gt;u&lt;/font&gt;&lt;span style=&quot;font-size: 4px;&quot;&gt;currentRow&lt;/span&gt;&lt;br&gt;&lt;font style=&quot;font-size: 9px;&quot;&gt;u&lt;/font&gt;&lt;/font&gt;&lt;font style=&quot;font-size: 4px;&quot;&gt;dimension&lt;br&gt;&lt;/font&gt;" style="text;html=1;align=center;verticalAlign=middle;resizable=0;points=[];autosize=1;strokeColor=none;fillColor=none;" parent="1" vertex="1">
          <mxGeometry x="772" y="188" width="43" height="41" as="geometry" />
        </mxCell>
        <mxCell id="6_1T0fNzaUE3SZ0l_4bJ-73" style="edgeStyle=orthogonalEdgeStyle;rounded=0;orthogonalLoop=1;jettySize=auto;html=1;exitX=0.5;exitY=1;exitDx=0;exitDy=0;entryX=0.5;entryY=0;entryDx=0;entryDy=0;" parent="1" source="6_1T0fNzaUE3SZ0l_4bJ-74" target="6_1T0fNzaUE3SZ0l_4bJ-76" edge="1">
          <mxGeometry relative="1" as="geometry" />
        </mxCell>
        <mxCell id="6_1T0fNzaUE3SZ0l_4bJ-74" value="1" style="ellipse;whiteSpace=wrap;html=1;aspect=fixed;&#xa;color=#ff0000;shadow=1;strokeColor=#33FF33;" parent="1" vertex="1">
          <mxGeometry x="810" y="100" width="28" height="28" as="geometry" />
        </mxCell>
        <mxCell id="6_1T0fNzaUE3SZ0l_4bJ-75" style="edgeStyle=orthogonalEdgeStyle;rounded=0;orthogonalLoop=1;jettySize=auto;html=1;exitX=0.5;exitY=1;exitDx=0;exitDy=0;entryX=0.5;entryY=0;entryDx=0;entryDy=0;" parent="1" source="6_1T0fNzaUE3SZ0l_4bJ-76" target="6_1T0fNzaUE3SZ0l_4bJ-79" edge="1">
          <mxGeometry relative="1" as="geometry" />
        </mxCell>
        <mxCell id="6_1T0fNzaUE3SZ0l_4bJ-76" value="2" style="ellipse;whiteSpace=wrap;html=1;aspect=fixed;" parent="1" vertex="1">
          <mxGeometry x="810" y="145" width="28" height="28" as="geometry" />
        </mxCell>
        <mxCell id="6_1T0fNzaUE3SZ0l_4bJ-77" style="edgeStyle=orthogonalEdgeStyle;rounded=0;orthogonalLoop=1;jettySize=auto;html=1;exitX=1;exitY=0.5;exitDx=0;exitDy=0;entryX=0;entryY=0.5;entryDx=0;entryDy=0;" parent="1" source="6_1T0fNzaUE3SZ0l_4bJ-79" target="6_1T0fNzaUE3SZ0l_4bJ-84" edge="1">
          <mxGeometry relative="1" as="geometry" />
        </mxCell>
        <mxCell id="6_1T0fNzaUE3SZ0l_4bJ-78" style="edgeStyle=orthogonalEdgeStyle;rounded=0;orthogonalLoop=1;jettySize=auto;html=1;exitX=0;exitY=0.5;exitDx=0;exitDy=0;entryX=0.5;entryY=0;entryDx=0;entryDy=0;" parent="1" source="6_1T0fNzaUE3SZ0l_4bJ-79" target="6_1T0fNzaUE3SZ0l_4bJ-81" edge="1">
          <mxGeometry relative="1" as="geometry" />
        </mxCell>
        <mxCell id="6_1T0fNzaUE3SZ0l_4bJ-79" value="2&#39;" style="ellipse;whiteSpace=wrap;html=1;aspect=fixed;" parent="1" vertex="1">
          <mxGeometry x="810" y="198" width="28" height="28" as="geometry" />
        </mxCell>
        <mxCell id="6_1T0fNzaUE3SZ0l_4bJ-80" style="edgeStyle=orthogonalEdgeStyle;rounded=0;orthogonalLoop=1;jettySize=auto;html=1;exitX=0.5;exitY=1;exitDx=0;exitDy=0;entryX=0.5;entryY=0;entryDx=0;entryDy=0;" parent="1" source="6_1T0fNzaUE3SZ0l_4bJ-81" target="6_1T0fNzaUE3SZ0l_4bJ-82" edge="1">
          <mxGeometry relative="1" as="geometry" />
        </mxCell>
        <mxCell id="6_1T0fNzaUE3SZ0l_4bJ-81" value="9" style="ellipse;whiteSpace=wrap;html=1;aspect=fixed;" parent="1" vertex="1">
          <mxGeometry x="739" y="239" width="28" height="28" as="geometry" />
        </mxCell>
        <mxCell id="6_1T0fNzaUE3SZ0l_4bJ-82" value="End" style="ellipse;whiteSpace=wrap;html=1;aspect=fixed;strokeColor=#CC0000;" parent="1" vertex="1">
          <mxGeometry x="739" y="300" width="28" height="28" as="geometry" />
        </mxCell>
        <mxCell id="6_1T0fNzaUE3SZ0l_4bJ-83" style="edgeStyle=orthogonalEdgeStyle;rounded=0;orthogonalLoop=1;jettySize=auto;html=1;exitX=1;exitY=0.5;exitDx=0;exitDy=0;entryX=0;entryY=0.5;entryDx=0;entryDy=0;" parent="1" source="6_1T0fNzaUE3SZ0l_4bJ-84" target="6_1T0fNzaUE3SZ0l_4bJ-87" edge="1">
          <mxGeometry relative="1" as="geometry" />
        </mxCell>
        <mxCell id="6_1T0fNzaUE3SZ0l_4bJ-84" value="3" style="ellipse;whiteSpace=wrap;html=1;aspect=fixed;" parent="1" vertex="1">
          <mxGeometry x="900" y="198" width="28" height="28" as="geometry" />
        </mxCell>
        <mxCell id="6_1T0fNzaUE3SZ0l_4bJ-85" style="edgeStyle=orthogonalEdgeStyle;rounded=0;orthogonalLoop=1;jettySize=auto;html=1;exitX=0.5;exitY=1;exitDx=0;exitDy=0;entryX=1;entryY=0.5;entryDx=0;entryDy=0;" parent="1" source="6_1T0fNzaUE3SZ0l_4bJ-87" target="6_1T0fNzaUE3SZ0l_4bJ-96" edge="1">
          <mxGeometry relative="1" as="geometry" />
        </mxCell>
        <mxCell id="6_1T0fNzaUE3SZ0l_4bJ-86" style="edgeStyle=orthogonalEdgeStyle;rounded=0;orthogonalLoop=1;jettySize=auto;html=1;exitX=1;exitY=0.5;exitDx=0;exitDy=0;entryX=0.5;entryY=0;entryDx=0;entryDy=0;" parent="1" source="6_1T0fNzaUE3SZ0l_4bJ-87" target="6_1T0fNzaUE3SZ0l_4bJ-89" edge="1">
          <mxGeometry relative="1" as="geometry" />
        </mxCell>
        <mxCell id="6_1T0fNzaUE3SZ0l_4bJ-87" value="3&#39;" style="ellipse;whiteSpace=wrap;html=1;aspect=fixed;" parent="1" vertex="1">
          <mxGeometry x="951" y="198" width="28" height="28" as="geometry" />
        </mxCell>
        <mxCell id="6_1T0fNzaUE3SZ0l_4bJ-88" style="edgeStyle=orthogonalEdgeStyle;rounded=0;orthogonalLoop=1;jettySize=auto;html=1;exitX=0.5;exitY=1;exitDx=0;exitDy=0;entryX=0.5;entryY=0;entryDx=0;entryDy=0;" parent="1" source="6_1T0fNzaUE3SZ0l_4bJ-89" target="6_1T0fNzaUE3SZ0l_4bJ-92" edge="1">
          <mxGeometry relative="1" as="geometry" />
        </mxCell>
        <mxCell id="6_1T0fNzaUE3SZ0l_4bJ-89" value="4" style="ellipse;whiteSpace=wrap;html=1;aspect=fixed;" parent="1" vertex="1">
          <mxGeometry x="1003" y="249" width="28" height="28" as="geometry" />
        </mxCell>
        <mxCell id="6_1T0fNzaUE3SZ0l_4bJ-90" style="edgeStyle=orthogonalEdgeStyle;rounded=0;orthogonalLoop=1;jettySize=auto;html=1;exitX=1;exitY=0.5;exitDx=0;exitDy=0;entryX=0.5;entryY=1;entryDx=0;entryDy=0;" parent="1" source="6_1T0fNzaUE3SZ0l_4bJ-92" target="6_1T0fNzaUE3SZ0l_4bJ-98" edge="1">
          <mxGeometry relative="1" as="geometry" />
        </mxCell>
        <mxCell id="6_1T0fNzaUE3SZ0l_4bJ-91" style="edgeStyle=orthogonalEdgeStyle;rounded=0;orthogonalLoop=1;jettySize=auto;html=1;exitX=0;exitY=0.5;exitDx=0;exitDy=0;entryX=1;entryY=0.5;entryDx=0;entryDy=0;" parent="1" source="6_1T0fNzaUE3SZ0l_4bJ-92" target="6_1T0fNzaUE3SZ0l_4bJ-94" edge="1">
          <mxGeometry relative="1" as="geometry" />
        </mxCell>
        <mxCell id="6_1T0fNzaUE3SZ0l_4bJ-92" value="5" style="ellipse;whiteSpace=wrap;html=1;aspect=fixed;" parent="1" vertex="1">
          <mxGeometry x="1003" y="300" width="28" height="28" as="geometry" />
        </mxCell>
        <mxCell id="6_1T0fNzaUE3SZ0l_4bJ-93" style="edgeStyle=orthogonalEdgeStyle;rounded=0;orthogonalLoop=1;jettySize=auto;html=1;exitX=0;exitY=0.5;exitDx=0;exitDy=0;entryX=1;entryY=0.5;entryDx=0;entryDy=0;" parent="1" source="6_1T0fNzaUE3SZ0l_4bJ-94" target="6_1T0fNzaUE3SZ0l_4bJ-82" edge="1">
          <mxGeometry relative="1" as="geometry" />
        </mxCell>
        <mxCell id="6_1T0fNzaUE3SZ0l_4bJ-94" value="6" style="ellipse;whiteSpace=wrap;html=1;aspect=fixed;" parent="1" vertex="1">
          <mxGeometry x="910" y="300" width="28" height="28" as="geometry" />
        </mxCell>
        <mxCell id="6_1T0fNzaUE3SZ0l_4bJ-95" style="edgeStyle=orthogonalEdgeStyle;rounded=0;orthogonalLoop=1;jettySize=auto;html=1;exitX=0;exitY=0.5;exitDx=0;exitDy=0;entryX=0.5;entryY=1;entryDx=0;entryDy=0;" parent="1" source="6_1T0fNzaUE3SZ0l_4bJ-96" target="6_1T0fNzaUE3SZ0l_4bJ-79" edge="1">
          <mxGeometry relative="1" as="geometry" />
        </mxCell>
        <mxCell id="6_1T0fNzaUE3SZ0l_4bJ-96" value="2&#39;&#39;" style="ellipse;whiteSpace=wrap;html=1;aspect=fixed;" parent="1" vertex="1">
          <mxGeometry x="900" y="249" width="28" height="28" as="geometry" />
        </mxCell>
        <mxCell id="6_1T0fNzaUE3SZ0l_4bJ-97" style="edgeStyle=orthogonalEdgeStyle;rounded=0;orthogonalLoop=1;jettySize=auto;html=1;exitX=0.5;exitY=0;exitDx=0;exitDy=0;entryX=0.5;entryY=0;entryDx=0;entryDy=0;" parent="1" source="6_1T0fNzaUE3SZ0l_4bJ-98" target="6_1T0fNzaUE3SZ0l_4bJ-87" edge="1">
          <mxGeometry relative="1" as="geometry" />
        </mxCell>
        <mxCell id="6_1T0fNzaUE3SZ0l_4bJ-98" value="3&#39;&#39;" style="ellipse;whiteSpace=wrap;html=1;aspect=fixed;" parent="1" vertex="1">
          <mxGeometry x="1077" y="214" width="28" height="28" as="geometry" />
        </mxCell>
        <mxCell id="6_1T0fNzaUE3SZ0l_4bJ-105" value="&lt;font style=&quot;&quot;&gt;&lt;font style=&quot;font-size: 9px;&quot;&gt;u&lt;/font&gt;&lt;span style=&quot;font-size: 4px;&quot;&gt;currentRow&lt;/span&gt;&lt;br&gt;&lt;/font&gt;&lt;font size=&quot;1&quot; style=&quot;&quot;&gt;d&lt;/font&gt;&lt;font style=&quot;font-size: 4px;&quot;&gt;currentRow&lt;br&gt;&lt;/font&gt;" style="text;html=1;align=center;verticalAlign=middle;resizable=0;points=[];autosize=1;strokeColor=none;fillColor=none;" parent="1" vertex="1">
          <mxGeometry x="863" y="239" width="44" height="41" as="geometry" />
        </mxCell>
        <mxCell id="6_1T0fNzaUE3SZ0l_4bJ-106" value="&lt;font style=&quot;font-size: 9px;&quot;&gt;d&lt;/font&gt;&lt;font style=&quot;font-size: 4px;&quot;&gt;currentColumn&lt;/font&gt;" style="text;html=1;align=center;verticalAlign=middle;resizable=0;points=[];autosize=1;strokeColor=none;fillColor=none;" parent="1" vertex="1">
          <mxGeometry x="889" y="178" width="49" height="26" as="geometry" />
        </mxCell>
        <mxCell id="6_1T0fNzaUE3SZ0l_4bJ-107" value="&lt;font style=&quot;&quot;&gt;&lt;font style=&quot;font-size: 9px;&quot;&gt;u&lt;/font&gt;&lt;span style=&quot;font-size: 4px;&quot;&gt;currentColumn&lt;/span&gt;&lt;br&gt;&lt;font style=&quot;font-size: 9px;&quot;&gt;u&lt;/font&gt;&lt;/font&gt;&lt;font style=&quot;font-size: 4px;&quot;&gt;dimension&lt;br&gt;&lt;/font&gt;" style="text;html=1;align=center;verticalAlign=middle;resizable=0;points=[];autosize=1;strokeColor=none;fillColor=none;" parent="1" vertex="1">
          <mxGeometry x="971" y="189" width="49" height="41" as="geometry" />
        </mxCell>
        <mxCell id="6_1T0fNzaUE3SZ0l_4bJ-108" value="&lt;font style=&quot;&quot;&gt;&lt;font style=&quot;font-size: 9px;&quot;&gt;u&lt;/font&gt;&lt;span style=&quot;font-size: 4px;&quot;&gt;currentColumn&lt;/span&gt;&lt;br&gt;&lt;/font&gt;&lt;font size=&quot;1&quot; style=&quot;&quot;&gt;d&lt;/font&gt;&lt;font style=&quot;font-size: 4px;&quot;&gt;currentColumn&lt;br&gt;&lt;/font&gt;" style="text;html=1;align=center;verticalAlign=middle;resizable=0;points=[];autosize=1;strokeColor=none;fillColor=none;" parent="1" vertex="1">
          <mxGeometry x="1097" y="206" width="50" height="41" as="geometry" />
        </mxCell>
        <mxCell id="6_1T0fNzaUE3SZ0l_4bJ-109" value="&lt;font style=&quot;font-size: 9px;&quot;&gt;d&lt;/font&gt;&lt;font style=&quot;font-size: 4px;&quot;&gt;candidate&lt;/font&gt;" style="text;html=1;align=center;verticalAlign=middle;resizable=0;points=[];autosize=1;strokeColor=none;fillColor=none;" parent="1" vertex="1">
          <mxGeometry x="1026" y="249" width="40" height="26" as="geometry" />
        </mxCell>
        <mxCell id="6_1T0fNzaUE3SZ0l_4bJ-111" value="&lt;font style=&quot;&quot;&gt;&lt;font style=&quot;font-size: 9px;&quot;&gt;u&lt;/font&gt;&lt;span style=&quot;font-size: 4px;&quot;&gt;currentColumn&lt;/span&gt;&lt;br&gt;&lt;/font&gt;&lt;font style=&quot;&quot;&gt;&lt;font style=&quot;font-size: 9px;&quot;&gt;u&lt;/font&gt;&lt;span style=&quot;font-size: 4px;&quot;&gt;currentRow&lt;/span&gt;&lt;br&gt;&lt;font style=&quot;font-size: 9px;&quot;&gt;d&lt;/font&gt;&lt;/font&gt;&lt;font style=&quot;font-size: 4px;&quot;&gt;candidate&lt;br&gt;&lt;/font&gt;" style="text;html=1;align=center;verticalAlign=middle;resizable=0;points=[];autosize=1;strokeColor=none;fillColor=none;" parent="1" vertex="1">
          <mxGeometry x="992.5" y="316" width="49" height="55" as="geometry" />
        </mxCell>
        <mxCell id="6_1T0fNzaUE3SZ0l_4bJ-117" style="edgeStyle=orthogonalEdgeStyle;rounded=0;orthogonalLoop=1;jettySize=auto;html=1;exitX=0.5;exitY=1;exitDx=0;exitDy=0;entryX=0.5;entryY=0;entryDx=0;entryDy=0;" parent="1" source="6_1T0fNzaUE3SZ0l_4bJ-118" target="6_1T0fNzaUE3SZ0l_4bJ-120" edge="1">
          <mxGeometry relative="1" as="geometry">
            <mxPoint x="798.5000000000001" y="588.0000000000001" as="targetPoint" />
          </mxGeometry>
        </mxCell>
        <mxCell id="6_1T0fNzaUE3SZ0l_4bJ-118" value="1" style="ellipse;whiteSpace=wrap;html=1;aspect=fixed;strokeColor=#00CC00;" parent="1" vertex="1">
          <mxGeometry x="783.5" y="562" width="28" height="28" as="geometry" />
        </mxCell>
        <mxCell id="6_1T0fNzaUE3SZ0l_4bJ-119" style="edgeStyle=orthogonalEdgeStyle;rounded=0;orthogonalLoop=1;jettySize=auto;html=1;exitX=0.5;exitY=1;exitDx=0;exitDy=0;entryX=0.5;entryY=0;entryDx=0;entryDy=0;" parent="1" source="6_1T0fNzaUE3SZ0l_4bJ-120" target="6_1T0fNzaUE3SZ0l_4bJ-123" edge="1">
          <mxGeometry relative="1" as="geometry">
            <mxPoint x="797.5" y="650" as="targetPoint" />
          </mxGeometry>
        </mxCell>
        <mxCell id="6_1T0fNzaUE3SZ0l_4bJ-120" value="5" style="ellipse;whiteSpace=wrap;html=1;aspect=fixed;" parent="1" vertex="1">
          <mxGeometry x="783.5" y="615" width="28" height="28" as="geometry" />
        </mxCell>
        <mxCell id="6_1T0fNzaUE3SZ0l_4bJ-121" style="edgeStyle=orthogonalEdgeStyle;rounded=0;orthogonalLoop=1;jettySize=auto;html=1;exitX=1;exitY=0.5;exitDx=0;exitDy=0;entryX=0;entryY=0.5;entryDx=0;entryDy=0;" parent="1" source="6_1T0fNzaUE3SZ0l_4bJ-123" target="6_1T0fNzaUE3SZ0l_4bJ-129" edge="1">
          <mxGeometry relative="1" as="geometry" />
        </mxCell>
        <mxCell id="6_1T0fNzaUE3SZ0l_4bJ-122" style="edgeStyle=orthogonalEdgeStyle;rounded=0;orthogonalLoop=1;jettySize=auto;html=1;exitX=0;exitY=0.5;exitDx=0;exitDy=0;entryX=1;entryY=0.5;entryDx=0;entryDy=0;" parent="1" source="6_1T0fNzaUE3SZ0l_4bJ-123" target="6_1T0fNzaUE3SZ0l_4bJ-125" edge="1">
          <mxGeometry relative="1" as="geometry" />
        </mxCell>
        <mxCell id="6_1T0fNzaUE3SZ0l_4bJ-123" value="5&#39;" style="ellipse;whiteSpace=wrap;html=1;aspect=fixed;" parent="1" vertex="1">
          <mxGeometry x="783.5" y="653" width="28" height="28" as="geometry" />
        </mxCell>
        <mxCell id="6_1T0fNzaUE3SZ0l_4bJ-124" style="edgeStyle=orthogonalEdgeStyle;rounded=0;orthogonalLoop=1;jettySize=auto;html=1;exitX=0.5;exitY=0;exitDx=0;exitDy=0;entryX=0.5;entryY=1;entryDx=0;entryDy=0;" parent="1" source="6_1T0fNzaUE3SZ0l_4bJ-125" target="6_1T0fNzaUE3SZ0l_4bJ-126" edge="1">
          <mxGeometry relative="1" as="geometry" />
        </mxCell>
        <mxCell id="6_1T0fNzaUE3SZ0l_4bJ-125" value="17" style="ellipse;whiteSpace=wrap;html=1;aspect=fixed;" parent="1" vertex="1">
          <mxGeometry x="697.5" y="653" width="28" height="28" as="geometry" />
        </mxCell>
        <mxCell id="6_1T0fNzaUE3SZ0l_4bJ-126" value="End" style="ellipse;whiteSpace=wrap;html=1;aspect=fixed;strokeColor=#CC0000;" parent="1" vertex="1">
          <mxGeometry x="697.5" y="562" width="28" height="28" as="geometry" />
        </mxCell>
        <mxCell id="6_1T0fNzaUE3SZ0l_4bJ-127" style="edgeStyle=orthogonalEdgeStyle;rounded=0;orthogonalLoop=1;jettySize=auto;html=1;exitX=1;exitY=0.5;exitDx=0;exitDy=0;entryX=0;entryY=0.5;entryDx=0;entryDy=0;" parent="1" source="6_1T0fNzaUE3SZ0l_4bJ-129" target="6_1T0fNzaUE3SZ0l_4bJ-131" edge="1">
          <mxGeometry relative="1" as="geometry" />
        </mxCell>
        <mxCell id="6_1T0fNzaUE3SZ0l_4bJ-128" style="edgeStyle=orthogonalEdgeStyle;rounded=0;orthogonalLoop=1;jettySize=auto;html=1;exitX=0.5;exitY=1;exitDx=0;exitDy=0;entryX=0.5;entryY=0;entryDx=0;entryDy=0;" parent="1" source="6_1T0fNzaUE3SZ0l_4bJ-129" target="6_1T0fNzaUE3SZ0l_4bJ-140" edge="1">
          <mxGeometry relative="1" as="geometry" />
        </mxCell>
        <mxCell id="6_1T0fNzaUE3SZ0l_4bJ-129" value="6" style="ellipse;whiteSpace=wrap;html=1;aspect=fixed;" parent="1" vertex="1">
          <mxGeometry x="875.5" y="653" width="28" height="28" as="geometry" />
        </mxCell>
        <mxCell id="6_1T0fNzaUE3SZ0l_4bJ-130" style="edgeStyle=orthogonalEdgeStyle;rounded=0;orthogonalLoop=1;jettySize=auto;html=1;exitX=0.5;exitY=1;exitDx=0;exitDy=0;entryX=1;entryY=0.5;entryDx=0;entryDy=0;" parent="1" source="6_1T0fNzaUE3SZ0l_4bJ-131" target="6_1T0fNzaUE3SZ0l_4bJ-140" edge="1">
          <mxGeometry relative="1" as="geometry" />
        </mxCell>
        <mxCell id="6_1T0fNzaUE3SZ0l_4bJ-131" value="10&lt;br&gt;" style="ellipse;whiteSpace=wrap;html=1;aspect=fixed;" parent="1" vertex="1">
          <mxGeometry x="931.5" y="653" width="28" height="28" as="geometry" />
        </mxCell>
        <mxCell id="6_1T0fNzaUE3SZ0l_4bJ-132" style="edgeStyle=orthogonalEdgeStyle;rounded=0;orthogonalLoop=1;jettySize=auto;html=1;exitX=0.5;exitY=1;exitDx=0;exitDy=0;entryX=0.5;entryY=0;entryDx=0;entryDy=0;" parent="1" source="6_1T0fNzaUE3SZ0l_4bJ-134" target="6_1T0fNzaUE3SZ0l_4bJ-136" edge="1">
          <mxGeometry relative="1" as="geometry" />
        </mxCell>
        <mxCell id="6_1T0fNzaUE3SZ0l_4bJ-133" style="edgeStyle=orthogonalEdgeStyle;rounded=0;orthogonalLoop=1;jettySize=auto;html=1;exitX=0;exitY=0.5;exitDx=0;exitDy=0;entryX=1;entryY=0.5;entryDx=0;entryDy=0;" parent="1" source="6_1T0fNzaUE3SZ0l_4bJ-134" target="6_1T0fNzaUE3SZ0l_4bJ-138" edge="1">
          <mxGeometry relative="1" as="geometry" />
        </mxCell>
        <mxCell id="6_1T0fNzaUE3SZ0l_4bJ-134" value="13" style="ellipse;whiteSpace=wrap;html=1;aspect=fixed;" parent="1" vertex="1">
          <mxGeometry x="827" y="702" width="28" height="28" as="geometry" />
        </mxCell>
        <mxCell id="6_1T0fNzaUE3SZ0l_4bJ-135" style="edgeStyle=orthogonalEdgeStyle;rounded=0;orthogonalLoop=1;jettySize=auto;html=1;exitX=0;exitY=0.5;exitDx=0;exitDy=0;entryX=0.5;entryY=1;entryDx=0;entryDy=0;" parent="1" source="6_1T0fNzaUE3SZ0l_4bJ-136" target="6_1T0fNzaUE3SZ0l_4bJ-138" edge="1">
          <mxGeometry relative="1" as="geometry" />
        </mxCell>
        <mxCell id="6_1T0fNzaUE3SZ0l_4bJ-136" value="14" style="ellipse;whiteSpace=wrap;html=1;aspect=fixed;" parent="1" vertex="1">
          <mxGeometry x="827" y="763" width="28" height="28" as="geometry" />
        </mxCell>
        <mxCell id="6_1T0fNzaUE3SZ0l_4bJ-137" style="edgeStyle=orthogonalEdgeStyle;rounded=0;orthogonalLoop=1;jettySize=auto;html=1;exitX=0.5;exitY=0;exitDx=0;exitDy=0;entryX=0.5;entryY=1;entryDx=0;entryDy=0;" parent="1" source="6_1T0fNzaUE3SZ0l_4bJ-138" target="6_1T0fNzaUE3SZ0l_4bJ-123" edge="1">
          <mxGeometry relative="1" as="geometry" />
        </mxCell>
        <mxCell id="6_1T0fNzaUE3SZ0l_4bJ-138" value="5&#39;&#39;" style="ellipse;whiteSpace=wrap;html=1;aspect=fixed;" parent="1" vertex="1">
          <mxGeometry x="783.5" y="702" width="28" height="28" as="geometry" />
        </mxCell>
        <mxCell id="6_1T0fNzaUE3SZ0l_4bJ-139" style="edgeStyle=orthogonalEdgeStyle;rounded=0;orthogonalLoop=1;jettySize=auto;html=1;exitX=0;exitY=0.5;exitDx=0;exitDy=0;entryX=1;entryY=0.5;entryDx=0;entryDy=0;" parent="1" source="6_1T0fNzaUE3SZ0l_4bJ-140" target="6_1T0fNzaUE3SZ0l_4bJ-134" edge="1">
          <mxGeometry relative="1" as="geometry" />
        </mxCell>
        <mxCell id="6_1T0fNzaUE3SZ0l_4bJ-140" value="12" style="ellipse;whiteSpace=wrap;html=1;aspect=fixed;" parent="1" vertex="1">
          <mxGeometry x="875.5" y="702" width="28" height="28" as="geometry" />
        </mxCell>
        <mxCell id="IEOvQ4g5rBGnYpZf3xbr-1" value="&lt;font style=&quot;&quot;&gt;&lt;font size=&quot;1&quot; style=&quot;&quot;&gt;d&lt;/font&gt;&lt;font style=&quot;font-size: 4px;&quot;&gt;solvedBoxes&lt;/font&gt;&lt;br&gt;&lt;/font&gt;&lt;div&gt;&lt;font style=&quot;&quot;&gt;&lt;font size=&quot;1&quot; style=&quot;&quot;&gt;d&lt;/font&gt;&lt;font style=&quot;font-size: 4px;&quot;&gt;row&lt;/font&gt;&lt;/font&gt;&lt;/div&gt;&lt;div&gt;&lt;font style=&quot;&quot;&gt;&lt;font size=&quot;1&quot; style=&quot;&quot;&gt;d&lt;/font&gt;&lt;font style=&quot;font-size: 4px;&quot;&gt;column &lt;br&gt;&lt;/font&gt;&lt;/font&gt;&lt;/div&gt;&lt;div&gt;&lt;font style=&quot;&quot;&gt;&lt;font size=&quot;1&quot; style=&quot;&quot;&gt;d&lt;/font&gt;&lt;font style=&quot;font-size: 4px;&quot;&gt;i&lt;/font&gt;&lt;/font&gt;&lt;br&gt;&lt;/div&gt;" style="text;html=1;align=center;verticalAlign=middle;resizable=0;points=[];autosize=1;strokeColor=none;fillColor=none;" parent="1" vertex="1">
          <mxGeometry x="746.5" y="581" width="46" height="70" as="geometry" />
        </mxCell>
        <mxCell id="IEOvQ4g5rBGnYpZf3xbr-2" value="&lt;font style=&quot;&quot;&gt;&lt;font size=&quot;1&quot; style=&quot;&quot;&gt;d&lt;/font&gt;&lt;font style=&quot;font-size: 4px;&quot;&gt;initialState&lt;/font&gt;&lt;/font&gt;" style="text;html=1;align=center;verticalAlign=middle;resizable=0;points=[];autosize=1;strokeColor=none;fillColor=none;" parent="1" vertex="1">
          <mxGeometry x="806.5" y="559" width="42" height="26" as="geometry" />
        </mxCell>
        <mxCell id="IEOvQ4g5rBGnYpZf3xbr-3" value="&lt;div&gt;&lt;font style=&quot;&quot;&gt;&lt;font size=&quot;1&quot; style=&quot;&quot;&gt;u&lt;/font&gt;&lt;font style=&quot;font-size: 4px;&quot;&gt;i&lt;/font&gt;&lt;/font&gt;&lt;/div&gt;&lt;font style=&quot;&quot;&gt;&lt;font size=&quot;1&quot; style=&quot;&quot;&gt;u&lt;/font&gt;&lt;font style=&quot;font-size: 4px;&quot;&gt;initialState&lt;/font&gt;&lt;/font&gt;" style="text;html=1;align=center;verticalAlign=middle;resizable=0;points=[];autosize=1;strokeColor=none;fillColor=none;" parent="1" vertex="1">
          <mxGeometry x="805.5" y="643" width="42" height="41" as="geometry" />
        </mxCell>
        <mxCell id="IEOvQ4g5rBGnYpZf3xbr-4" value="&lt;font style=&quot;&quot;&gt;&lt;font size=&quot;1&quot; style=&quot;&quot;&gt;d&lt;/font&gt;&lt;font style=&quot;font-size: 4px;&quot;&gt;currentValue&lt;/font&gt;&lt;br&gt;&lt;/font&gt;&lt;div&gt;&lt;font style=&quot;&quot;&gt;&lt;font size=&quot;1&quot; style=&quot;&quot;&gt;d&lt;/font&gt;&lt;font style=&quot;font-size: 4px;&quot;&gt;box&lt;/font&gt;&lt;/font&gt;&lt;/div&gt;&lt;div&gt;&lt;font style=&quot;&quot;&gt;&lt;font size=&quot;1&quot; style=&quot;&quot;&gt;u&lt;/font&gt;&lt;font style=&quot;font-size: 4px;&quot;&gt;initialState &lt;br&gt;&lt;/font&gt;&lt;/font&gt;&lt;/div&gt;&lt;div&gt;&lt;font style=&quot;&quot;&gt;&lt;font size=&quot;1&quot; style=&quot;&quot;&gt;u&lt;/font&gt;&lt;font style=&quot;font-size: 4px;&quot;&gt;dimension &lt;br&gt;&lt;/font&gt;&lt;/font&gt;&lt;/div&gt;&lt;div&gt;&lt;font style=&quot;&quot;&gt;&lt;font size=&quot;1&quot; style=&quot;&quot;&gt;u&lt;/font&gt;&lt;font style=&quot;font-size: 4px;&quot;&gt;row &lt;br&gt;&lt;/font&gt;&lt;/font&gt;&lt;/div&gt;&lt;div&gt;&lt;font style=&quot;&quot;&gt;&lt;font size=&quot;1&quot; style=&quot;&quot;&gt;u&lt;/font&gt;&lt;font style=&quot;font-size: 4px;&quot;&gt;column &lt;br&gt;&lt;/font&gt;&lt;/font&gt;&lt;/div&gt;&lt;div&gt;&lt;font style=&quot;&quot;&gt;&lt;font size=&quot;1&quot; style=&quot;&quot;&gt;u&lt;/font&gt;&lt;font style=&quot;font-size: 4px;&quot;&gt;currentValue&lt;br&gt;&lt;/font&gt;&lt;/font&gt;&lt;/div&gt;&amp;nbsp;&lt;font size=&quot;1&quot;&gt;u&lt;/font&gt;&lt;font style=&quot;&quot;&gt;&lt;span style=&quot;font-size: 4px;&quot;&gt;box&lt;/span&gt;&lt;br&gt;&lt;font style=&quot;font-size: 9px;&quot;&gt;u&lt;/font&gt;&lt;font style=&quot;&quot;&gt;&lt;font style=&quot;font-size: 4px;&quot;&gt;solvedBoxes&lt;/font&gt;&lt;br&gt;&lt;/font&gt;&lt;font style=&quot;&quot;&gt;&lt;font style=&quot;font-size: 9px;&quot;&gt;u&lt;/font&gt;&lt;font style=&quot;font-size: 4px;&quot;&gt;i&lt;/font&gt;&lt;/font&gt;&lt;br&gt;&lt;/font&gt;" style="text;html=1;align=center;verticalAlign=middle;resizable=0;points=[];autosize=1;strokeColor=none;fillColor=none;" parent="1" vertex="1">
          <mxGeometry x="952.5" y="586" width="46" height="156" as="geometry" />
        </mxCell>
        <mxCell id="IEOvQ4g5rBGnYpZf3xbr-5" value="&lt;font style=&quot;&quot;&gt;&lt;font size=&quot;1&quot; style=&quot;&quot;&gt;u&lt;/font&gt;&lt;font style=&quot;&quot;&gt;&lt;span style=&quot;font-size: 4px;&quot;&gt;initialState &lt;/span&gt;&lt;font size=&quot;1&quot;&gt;u&lt;/font&gt;&lt;/font&gt;&lt;font style=&quot;font-size: 4px;&quot;&gt;i&lt;br&gt;&lt;/font&gt;&lt;/font&gt;" style="text;html=1;align=center;verticalAlign=middle;resizable=0;points=[];autosize=1;strokeColor=none;fillColor=none;" parent="1" vertex="1">
          <mxGeometry x="864.5" y="631" width="50" height="26" as="geometry" />
        </mxCell>
        <mxCell id="IEOvQ4g5rBGnYpZf3xbr-6" value="&lt;div&gt;&lt;font style=&quot;&quot;&gt;&lt;font size=&quot;1&quot; style=&quot;&quot;&gt;d&lt;/font&gt;&lt;font style=&quot;font-size: 4px;&quot;&gt;column&lt;/font&gt;&lt;/font&gt;&lt;/div&gt;&lt;div&gt;&lt;font style=&quot;&quot;&gt;&lt;font size=&quot;1&quot; style=&quot;&quot;&gt;d&lt;/font&gt;&lt;font style=&quot;font-size: 4px;&quot;&gt;column &lt;br&gt;&lt;/font&gt;&lt;/font&gt;&lt;/div&gt;&lt;div&gt;&lt;font style=&quot;&quot;&gt;&lt;font size=&quot;1&quot; style=&quot;&quot;&gt;d&lt;/font&gt;&lt;font style=&quot;font-size: 4px;&quot;&gt;dimension&lt;/font&gt;&lt;/font&gt;&lt;/div&gt;" style="text;html=1;align=center;verticalAlign=middle;resizable=0;points=[];autosize=1;strokeColor=none;fillColor=none;" parent="1" vertex="1">
          <mxGeometry x="868.5" y="724" width="42" height="55" as="geometry" />
        </mxCell>
        <mxCell id="IEOvQ4g5rBGnYpZf3xbr-7" value="&lt;div&gt;&lt;font style=&quot;&quot;&gt;&lt;font size=&quot;1&quot; style=&quot;&quot;&gt;d&lt;/font&gt;&lt;font style=&quot;font-size: 4px;&quot;&gt;row&lt;/font&gt;&lt;/font&gt;&lt;/div&gt;&lt;font style=&quot;&quot;&gt;&lt;font size=&quot;1&quot; style=&quot;&quot;&gt;u&lt;/font&gt;&lt;font style=&quot;font-size: 4px;&quot;&gt;row&lt;/font&gt;&lt;/font&gt;" style="text;html=1;align=center;verticalAlign=middle;resizable=0;points=[];autosize=1;strokeColor=none;fillColor=none;" parent="1" vertex="1">
          <mxGeometry x="824" y="783" width="30" height="41" as="geometry" />
        </mxCell>
        <mxCell id="IEOvQ4g5rBGnYpZf3xbr-8" value="&lt;div&gt;&lt;font style=&quot;&quot;&gt;&lt;font size=&quot;1&quot; style=&quot;&quot;&gt;d&lt;/font&gt;&lt;font style=&quot;font-size: 4px;&quot;&gt;i&lt;/font&gt;&lt;/font&gt;&lt;/div&gt;&lt;font style=&quot;&quot;&gt;&lt;font size=&quot;1&quot; style=&quot;&quot;&gt;u&lt;/font&gt;&lt;font style=&quot;font-size: 4px;&quot;&gt;i&lt;/font&gt;&lt;/font&gt;" style="text;html=1;align=center;verticalAlign=middle;resizable=0;points=[];autosize=1;strokeColor=none;fillColor=none;" parent="1" vertex="1">
          <mxGeometry x="763.5" y="695.5" width="24" height="41" as="geometry" />
        </mxCell>
        <mxCell id="HwOWRRzx80IdnrhkuV28-1" value="&lt;div&gt;&lt;/div&gt;&lt;font style=&quot;&quot;&gt;&lt;font size=&quot;1&quot; style=&quot;&quot;&gt;u&lt;/font&gt;&lt;span style=&quot;font-size: 4px;&quot;&gt;column&lt;/span&gt;&lt;/font&gt;" style="text;html=1;align=center;verticalAlign=middle;resizable=0;points=[];autosize=1;strokeColor=none;fillColor=none;" parent="1" vertex="1">
          <mxGeometry x="824" y="681" width="36" height="26" as="geometry" />
        </mxCell>
        <mxCell id="HwOWRRzx80IdnrhkuV28-2" value="&lt;div&gt;&lt;/div&gt;&lt;font style=&quot;&quot;&gt;&lt;font size=&quot;1&quot; style=&quot;&quot;&gt;u&lt;/font&gt;&lt;span style=&quot;font-size: 4px;&quot;&gt;solvedBoxes&lt;/span&gt;&lt;/font&gt;" style="text;html=1;align=center;verticalAlign=middle;resizable=0;points=[];autosize=1;strokeColor=none;fillColor=none;" parent="1" vertex="1">
          <mxGeometry x="688.5" y="673" width="46" height="26" as="geometry" />
        </mxCell>
        <mxCell id="HwOWRRzx80IdnrhkuV28-3" value="Graphes de flot de contrôle" style="ellipse;whiteSpace=wrap;html=1;" parent="1" vertex="1">
          <mxGeometry x="416.5" y="405" width="120" height="80" as="geometry" />
        </mxCell>
        <mxCell id="HwOWRRzx80IdnrhkuV28-4" value="Definitions et utilisations" style="ellipse;whiteSpace=wrap;html=1;" parent="1" vertex="1">
          <mxGeometry x="844" y="412" width="120" height="80" as="geometry" />
        </mxCell>
      </root>
    </mxGraphModel>
  </diagram>
  <diagram id="RjZ9FVNTi1yrl23t-TGr" name="Page-2">
    <mxGraphModel dx="382" dy="270" grid="0" gridSize="10" guides="1" tooltips="0" connect="1" arrows="1" fold="1" page="1" pageScale="1" pageWidth="827" pageHeight="1169" math="0" shadow="0">
      <root>
        <mxCell id="0" />
        <mxCell id="1" parent="0" />
        <mxCell id="6_yCp3oKkFOMt5muPyzv-1" style="edgeStyle=orthogonalEdgeStyle;rounded=0;orthogonalLoop=1;jettySize=auto;html=1;exitX=0.5;exitY=1;exitDx=0;exitDy=0;entryX=0.5;entryY=0;entryDx=0;entryDy=0;" edge="1" parent="1" source="6_yCp3oKkFOMt5muPyzv-2" target="6_yCp3oKkFOMt5muPyzv-4">
          <mxGeometry relative="1" as="geometry" />
        </mxCell>
        <mxCell id="6_yCp3oKkFOMt5muPyzv-2" value="1" style="ellipse;whiteSpace=wrap;html=1;aspect=fixed;&#xa;color=#ff0000;shadow=1;strokeColor=#33FF33;" vertex="1" parent="1">
          <mxGeometry x="302" y="198" width="28" height="28" as="geometry" />
        </mxCell>
        <mxCell id="6_yCp3oKkFOMt5muPyzv-3" style="edgeStyle=orthogonalEdgeStyle;rounded=0;orthogonalLoop=1;jettySize=auto;html=1;exitX=0.5;exitY=1;exitDx=0;exitDy=0;entryX=0.5;entryY=0;entryDx=0;entryDy=0;" edge="1" parent="1" source="6_yCp3oKkFOMt5muPyzv-4" target="6_yCp3oKkFOMt5muPyzv-7">
          <mxGeometry relative="1" as="geometry" />
        </mxCell>
        <mxCell id="6_yCp3oKkFOMt5muPyzv-4" value="2" style="ellipse;whiteSpace=wrap;html=1;aspect=fixed;" vertex="1" parent="1">
          <mxGeometry x="302" y="243" width="28" height="28" as="geometry" />
        </mxCell>
        <mxCell id="6_yCp3oKkFOMt5muPyzv-5" style="edgeStyle=orthogonalEdgeStyle;rounded=0;orthogonalLoop=1;jettySize=auto;html=1;exitX=1;exitY=0.5;exitDx=0;exitDy=0;entryX=0;entryY=0.5;entryDx=0;entryDy=0;" edge="1" parent="1" source="6_yCp3oKkFOMt5muPyzv-7" target="6_yCp3oKkFOMt5muPyzv-12">
          <mxGeometry relative="1" as="geometry" />
        </mxCell>
        <mxCell id="6_yCp3oKkFOMt5muPyzv-6" style="edgeStyle=orthogonalEdgeStyle;rounded=0;orthogonalLoop=1;jettySize=auto;html=1;exitX=0;exitY=0.5;exitDx=0;exitDy=0;entryX=0.5;entryY=0;entryDx=0;entryDy=0;" edge="1" parent="1" source="6_yCp3oKkFOMt5muPyzv-7" target="6_yCp3oKkFOMt5muPyzv-9">
          <mxGeometry relative="1" as="geometry" />
        </mxCell>
        <mxCell id="6_yCp3oKkFOMt5muPyzv-7" value="2&#39;" style="ellipse;whiteSpace=wrap;html=1;aspect=fixed;" vertex="1" parent="1">
          <mxGeometry x="302" y="296" width="28" height="28" as="geometry" />
        </mxCell>
        <mxCell id="6_yCp3oKkFOMt5muPyzv-8" style="edgeStyle=orthogonalEdgeStyle;rounded=0;orthogonalLoop=1;jettySize=auto;html=1;exitX=0.5;exitY=1;exitDx=0;exitDy=0;entryX=0.5;entryY=0;entryDx=0;entryDy=0;" edge="1" parent="1" source="6_yCp3oKkFOMt5muPyzv-9" target="6_yCp3oKkFOMt5muPyzv-10">
          <mxGeometry relative="1" as="geometry" />
        </mxCell>
        <mxCell id="6_yCp3oKkFOMt5muPyzv-9" value="9" style="ellipse;whiteSpace=wrap;html=1;aspect=fixed;" vertex="1" parent="1">
          <mxGeometry x="231" y="337" width="28" height="28" as="geometry" />
        </mxCell>
        <mxCell id="6_yCp3oKkFOMt5muPyzv-10" value="End" style="ellipse;whiteSpace=wrap;html=1;aspect=fixed;strokeColor=#CC0000;" vertex="1" parent="1">
          <mxGeometry x="231" y="398" width="28" height="28" as="geometry" />
        </mxCell>
        <mxCell id="6_yCp3oKkFOMt5muPyzv-11" style="edgeStyle=orthogonalEdgeStyle;rounded=0;orthogonalLoop=1;jettySize=auto;html=1;exitX=1;exitY=0.5;exitDx=0;exitDy=0;entryX=0;entryY=0.5;entryDx=0;entryDy=0;" edge="1" parent="1" source="6_yCp3oKkFOMt5muPyzv-12" target="6_yCp3oKkFOMt5muPyzv-15">
          <mxGeometry relative="1" as="geometry" />
        </mxCell>
        <mxCell id="6_yCp3oKkFOMt5muPyzv-12" value="3" style="ellipse;whiteSpace=wrap;html=1;aspect=fixed;" vertex="1" parent="1">
          <mxGeometry x="392" y="296" width="28" height="28" as="geometry" />
        </mxCell>
        <mxCell id="6_yCp3oKkFOMt5muPyzv-13" style="edgeStyle=orthogonalEdgeStyle;rounded=0;orthogonalLoop=1;jettySize=auto;html=1;exitX=0.5;exitY=1;exitDx=0;exitDy=0;entryX=1;entryY=0.5;entryDx=0;entryDy=0;" edge="1" parent="1" source="6_yCp3oKkFOMt5muPyzv-15" target="6_yCp3oKkFOMt5muPyzv-24">
          <mxGeometry relative="1" as="geometry" />
        </mxCell>
        <mxCell id="6_yCp3oKkFOMt5muPyzv-14" style="edgeStyle=orthogonalEdgeStyle;rounded=0;orthogonalLoop=1;jettySize=auto;html=1;exitX=1;exitY=0.5;exitDx=0;exitDy=0;entryX=0.5;entryY=0;entryDx=0;entryDy=0;" edge="1" parent="1" source="6_yCp3oKkFOMt5muPyzv-15" target="6_yCp3oKkFOMt5muPyzv-17">
          <mxGeometry relative="1" as="geometry" />
        </mxCell>
        <mxCell id="6_yCp3oKkFOMt5muPyzv-15" value="3&#39;" style="ellipse;whiteSpace=wrap;html=1;aspect=fixed;" vertex="1" parent="1">
          <mxGeometry x="443" y="296" width="28" height="28" as="geometry" />
        </mxCell>
        <mxCell id="6_yCp3oKkFOMt5muPyzv-16" style="edgeStyle=orthogonalEdgeStyle;rounded=0;orthogonalLoop=1;jettySize=auto;html=1;exitX=0.5;exitY=1;exitDx=0;exitDy=0;entryX=0.5;entryY=0;entryDx=0;entryDy=0;" edge="1" parent="1" source="6_yCp3oKkFOMt5muPyzv-17" target="6_yCp3oKkFOMt5muPyzv-20">
          <mxGeometry relative="1" as="geometry" />
        </mxCell>
        <mxCell id="6_yCp3oKkFOMt5muPyzv-17" value="4" style="ellipse;whiteSpace=wrap;html=1;aspect=fixed;" vertex="1" parent="1">
          <mxGeometry x="495" y="347" width="28" height="28" as="geometry" />
        </mxCell>
        <mxCell id="6_yCp3oKkFOMt5muPyzv-18" style="edgeStyle=orthogonalEdgeStyle;rounded=0;orthogonalLoop=1;jettySize=auto;html=1;exitX=1;exitY=0.5;exitDx=0;exitDy=0;entryX=0.5;entryY=1;entryDx=0;entryDy=0;" edge="1" parent="1" source="6_yCp3oKkFOMt5muPyzv-20" target="6_yCp3oKkFOMt5muPyzv-26">
          <mxGeometry relative="1" as="geometry" />
        </mxCell>
        <mxCell id="6_yCp3oKkFOMt5muPyzv-19" style="edgeStyle=orthogonalEdgeStyle;rounded=0;orthogonalLoop=1;jettySize=auto;html=1;exitX=0;exitY=0.5;exitDx=0;exitDy=0;entryX=1;entryY=0.5;entryDx=0;entryDy=0;" edge="1" parent="1" source="6_yCp3oKkFOMt5muPyzv-20" target="6_yCp3oKkFOMt5muPyzv-22">
          <mxGeometry relative="1" as="geometry" />
        </mxCell>
        <mxCell id="6_yCp3oKkFOMt5muPyzv-20" value="5" style="ellipse;whiteSpace=wrap;html=1;aspect=fixed;" vertex="1" parent="1">
          <mxGeometry x="495" y="398" width="28" height="28" as="geometry" />
        </mxCell>
        <mxCell id="6_yCp3oKkFOMt5muPyzv-21" style="edgeStyle=orthogonalEdgeStyle;rounded=0;orthogonalLoop=1;jettySize=auto;html=1;exitX=0;exitY=0.5;exitDx=0;exitDy=0;entryX=1;entryY=0.5;entryDx=0;entryDy=0;" edge="1" parent="1" source="6_yCp3oKkFOMt5muPyzv-22" target="6_yCp3oKkFOMt5muPyzv-10">
          <mxGeometry relative="1" as="geometry" />
        </mxCell>
        <mxCell id="6_yCp3oKkFOMt5muPyzv-22" value="6" style="ellipse;whiteSpace=wrap;html=1;aspect=fixed;" vertex="1" parent="1">
          <mxGeometry x="402" y="398" width="28" height="28" as="geometry" />
        </mxCell>
        <mxCell id="6_yCp3oKkFOMt5muPyzv-23" style="edgeStyle=orthogonalEdgeStyle;rounded=0;orthogonalLoop=1;jettySize=auto;html=1;exitX=0;exitY=0.5;exitDx=0;exitDy=0;entryX=0.5;entryY=1;entryDx=0;entryDy=0;" edge="1" parent="1" source="6_yCp3oKkFOMt5muPyzv-24" target="6_yCp3oKkFOMt5muPyzv-7">
          <mxGeometry relative="1" as="geometry" />
        </mxCell>
        <mxCell id="6_yCp3oKkFOMt5muPyzv-24" value="2&#39;&#39;" style="ellipse;whiteSpace=wrap;html=1;aspect=fixed;" vertex="1" parent="1">
          <mxGeometry x="392" y="347" width="28" height="28" as="geometry" />
        </mxCell>
        <mxCell id="6_yCp3oKkFOMt5muPyzv-25" style="edgeStyle=orthogonalEdgeStyle;rounded=0;orthogonalLoop=1;jettySize=auto;html=1;exitX=0.5;exitY=0;exitDx=0;exitDy=0;entryX=0.5;entryY=0;entryDx=0;entryDy=0;" edge="1" parent="1" source="6_yCp3oKkFOMt5muPyzv-26" target="6_yCp3oKkFOMt5muPyzv-15">
          <mxGeometry relative="1" as="geometry" />
        </mxCell>
        <mxCell id="6_yCp3oKkFOMt5muPyzv-26" value="3&#39;&#39;" style="ellipse;whiteSpace=wrap;html=1;aspect=fixed;" vertex="1" parent="1">
          <mxGeometry x="569" y="312" width="28" height="28" as="geometry" />
        </mxCell>
        <mxCell id="6_yCp3oKkFOMt5muPyzv-27" value="&lt;div style=&quot;font-family: Menlo, Monaco, &amp;quot;Courier New&amp;quot;, monospace; line-height: 18px;&quot;&gt;&lt;font style=&quot;font-size: 4px;&quot;&gt;currentRow &amp;gt;= dimension&lt;/font&gt;&lt;/div&gt;" style="text;html=1;strokeColor=none;fillColor=none;align=center;verticalAlign=middle;whiteSpace=wrap;rounded=0;" vertex="1" parent="1">
          <mxGeometry x="242" y="286" width="60" height="26" as="geometry" />
        </mxCell>
        <mxCell id="6_yCp3oKkFOMt5muPyzv-28" value="&lt;div style=&quot;font-family: Menlo, Monaco, &amp;quot;Courier New&amp;quot;, monospace; line-height: 18px;&quot;&gt;&lt;font style=&quot;font-size: 4px;&quot;&gt;currentRow &amp;gt;= dimension&lt;/font&gt;&lt;/div&gt;" style="text;html=1;strokeColor=none;fillColor=none;align=center;verticalAlign=middle;whiteSpace=wrap;rounded=0;" vertex="1" parent="1">
          <mxGeometry x="312" y="283" width="90" height="26" as="geometry" />
        </mxCell>
        <mxCell id="6_yCp3oKkFOMt5muPyzv-29" value="&lt;div style=&quot;font-family: Menlo, Monaco, &amp;quot;Courier New&amp;quot;, monospace; line-height: 18px;&quot;&gt;&lt;font style=&quot;font-size: 4px;&quot;&gt;currentColumn &amp;lt; dimension&lt;/font&gt;&lt;/div&gt;" style="text;html=1;align=center;verticalAlign=middle;resizable=0;points=[];autosize=1;strokeColor=none;fillColor=none;" vertex="1" parent="1">
          <mxGeometry x="466" y="279" width="78" height="33" as="geometry" />
        </mxCell>
        <mxCell id="6_yCp3oKkFOMt5muPyzv-30" value="&lt;div style=&quot;font-family: Menlo, Monaco, &amp;quot;Courier New&amp;quot;, monospace; line-height: 18px;&quot;&gt;&lt;font style=&quot;font-size: 4px;&quot;&gt;currentColumn &amp;gt;= dimension&lt;/font&gt;&lt;/div&gt;" style="text;html=1;align=center;verticalAlign=middle;resizable=0;points=[];autosize=1;strokeColor=none;fillColor=none;" vertex="1" parent="1">
          <mxGeometry x="381" y="318" width="81" height="33" as="geometry" />
        </mxCell>
        <mxCell id="6_yCp3oKkFOMt5muPyzv-31" value="&lt;div style=&quot;font-family: Menlo, Monaco, &amp;quot;Courier New&amp;quot;, monospace; line-height: 18px;&quot;&gt;&lt;font style=&quot;font-size: 4px;&quot;&gt;!candidate.isSolved&lt;/font&gt;&lt;/div&gt;" style="text;html=1;align=center;verticalAlign=middle;resizable=0;points=[];autosize=1;strokeColor=none;fillColor=none;" vertex="1" parent="1">
          <mxGeometry x="508" y="418" width="64" height="33" as="geometry" />
        </mxCell>
        <mxCell id="6_yCp3oKkFOMt5muPyzv-32" value="&lt;div style=&quot;font-family: Menlo, Monaco, &amp;quot;Courier New&amp;quot;, monospace; line-height: 18px;&quot;&gt;&lt;font style=&quot;font-size: 4px;&quot;&gt;candidate.isSolved&lt;/font&gt;&lt;/div&gt;" style="text;html=1;align=center;verticalAlign=middle;resizable=0;points=[];autosize=1;strokeColor=none;fillColor=none;" vertex="1" parent="1">
          <mxGeometry x="519" y="383" width="61" height="33" as="geometry" />
        </mxCell>
        <mxCell id="6_yCp3oKkFOMt5muPyzv-33" value="&lt;font style=&quot;font-size: 9px;&quot;&gt;d&lt;/font&gt;&lt;font style=&quot;font-size: 4px;&quot;&gt;currentRow&lt;/font&gt;" style="text;html=1;align=center;verticalAlign=middle;resizable=0;points=[];autosize=1;strokeColor=none;fillColor=none;" vertex="1" parent="1">
          <mxGeometry x="256.5" y="581" width="43" height="26" as="geometry" />
        </mxCell>
        <mxCell id="6_yCp3oKkFOMt5muPyzv-34" value="&lt;font style=&quot;&quot;&gt;&lt;font style=&quot;font-size: 9px;&quot;&gt;u&lt;/font&gt;&lt;span style=&quot;font-size: 4px;&quot;&gt;currentRow&lt;/span&gt;&lt;br&gt;&lt;font style=&quot;font-size: 9px;&quot;&gt;u&lt;/font&gt;&lt;/font&gt;&lt;font style=&quot;font-size: 4px;&quot;&gt;dimension&lt;br&gt;&lt;/font&gt;" style="text;html=1;align=center;verticalAlign=middle;resizable=0;points=[];autosize=1;strokeColor=none;fillColor=none;" vertex="1" parent="1">
          <mxGeometry x="250.5" y="638" width="43" height="41" as="geometry" />
        </mxCell>
        <mxCell id="6_yCp3oKkFOMt5muPyzv-35" style="edgeStyle=orthogonalEdgeStyle;rounded=0;orthogonalLoop=1;jettySize=auto;html=1;exitX=0.5;exitY=1;exitDx=0;exitDy=0;entryX=0.5;entryY=0;entryDx=0;entryDy=0;" edge="1" parent="1" source="6_yCp3oKkFOMt5muPyzv-36" target="6_yCp3oKkFOMt5muPyzv-38">
          <mxGeometry relative="1" as="geometry" />
        </mxCell>
        <mxCell id="6_yCp3oKkFOMt5muPyzv-36" value="1" style="ellipse;whiteSpace=wrap;html=1;aspect=fixed;&#xa;color=#ff0000;shadow=1;strokeColor=#33FF33;" vertex="1" parent="1">
          <mxGeometry x="288.5" y="550" width="28" height="28" as="geometry" />
        </mxCell>
        <mxCell id="6_yCp3oKkFOMt5muPyzv-37" style="edgeStyle=orthogonalEdgeStyle;rounded=0;orthogonalLoop=1;jettySize=auto;html=1;exitX=0.5;exitY=1;exitDx=0;exitDy=0;entryX=0.5;entryY=0;entryDx=0;entryDy=0;" edge="1" parent="1" source="6_yCp3oKkFOMt5muPyzv-38" target="6_yCp3oKkFOMt5muPyzv-41">
          <mxGeometry relative="1" as="geometry" />
        </mxCell>
        <mxCell id="6_yCp3oKkFOMt5muPyzv-38" value="2" style="ellipse;whiteSpace=wrap;html=1;aspect=fixed;" vertex="1" parent="1">
          <mxGeometry x="288.5" y="595" width="28" height="28" as="geometry" />
        </mxCell>
        <mxCell id="6_yCp3oKkFOMt5muPyzv-39" style="edgeStyle=orthogonalEdgeStyle;rounded=0;orthogonalLoop=1;jettySize=auto;html=1;exitX=1;exitY=0.5;exitDx=0;exitDy=0;entryX=0;entryY=0.5;entryDx=0;entryDy=0;" edge="1" parent="1" source="6_yCp3oKkFOMt5muPyzv-41" target="6_yCp3oKkFOMt5muPyzv-46">
          <mxGeometry relative="1" as="geometry" />
        </mxCell>
        <mxCell id="6_yCp3oKkFOMt5muPyzv-40" style="edgeStyle=orthogonalEdgeStyle;rounded=0;orthogonalLoop=1;jettySize=auto;html=1;exitX=0;exitY=0.5;exitDx=0;exitDy=0;entryX=0.5;entryY=0;entryDx=0;entryDy=0;" edge="1" parent="1" source="6_yCp3oKkFOMt5muPyzv-41" target="6_yCp3oKkFOMt5muPyzv-43">
          <mxGeometry relative="1" as="geometry" />
        </mxCell>
        <mxCell id="6_yCp3oKkFOMt5muPyzv-41" value="2&#39;" style="ellipse;whiteSpace=wrap;html=1;aspect=fixed;" vertex="1" parent="1">
          <mxGeometry x="288.5" y="648" width="28" height="28" as="geometry" />
        </mxCell>
        <mxCell id="6_yCp3oKkFOMt5muPyzv-42" style="edgeStyle=orthogonalEdgeStyle;rounded=0;orthogonalLoop=1;jettySize=auto;html=1;exitX=0.5;exitY=1;exitDx=0;exitDy=0;entryX=0.5;entryY=0;entryDx=0;entryDy=0;" edge="1" parent="1" source="6_yCp3oKkFOMt5muPyzv-43" target="6_yCp3oKkFOMt5muPyzv-44">
          <mxGeometry relative="1" as="geometry" />
        </mxCell>
        <mxCell id="6_yCp3oKkFOMt5muPyzv-43" value="9" style="ellipse;whiteSpace=wrap;html=1;aspect=fixed;" vertex="1" parent="1">
          <mxGeometry x="217.5" y="689" width="28" height="28" as="geometry" />
        </mxCell>
        <mxCell id="6_yCp3oKkFOMt5muPyzv-44" value="End" style="ellipse;whiteSpace=wrap;html=1;aspect=fixed;strokeColor=#CC0000;" vertex="1" parent="1">
          <mxGeometry x="217.5" y="750" width="28" height="28" as="geometry" />
        </mxCell>
        <mxCell id="6_yCp3oKkFOMt5muPyzv-45" style="edgeStyle=orthogonalEdgeStyle;rounded=0;orthogonalLoop=1;jettySize=auto;html=1;exitX=1;exitY=0.5;exitDx=0;exitDy=0;entryX=0;entryY=0.5;entryDx=0;entryDy=0;" edge="1" parent="1" source="6_yCp3oKkFOMt5muPyzv-46" target="6_yCp3oKkFOMt5muPyzv-49">
          <mxGeometry relative="1" as="geometry" />
        </mxCell>
        <mxCell id="6_yCp3oKkFOMt5muPyzv-46" value="3" style="ellipse;whiteSpace=wrap;html=1;aspect=fixed;" vertex="1" parent="1">
          <mxGeometry x="378.5" y="648" width="28" height="28" as="geometry" />
        </mxCell>
        <mxCell id="6_yCp3oKkFOMt5muPyzv-47" style="edgeStyle=orthogonalEdgeStyle;rounded=0;orthogonalLoop=1;jettySize=auto;html=1;exitX=0.5;exitY=1;exitDx=0;exitDy=0;entryX=1;entryY=0.5;entryDx=0;entryDy=0;" edge="1" parent="1" source="6_yCp3oKkFOMt5muPyzv-49" target="6_yCp3oKkFOMt5muPyzv-58">
          <mxGeometry relative="1" as="geometry" />
        </mxCell>
        <mxCell id="6_yCp3oKkFOMt5muPyzv-48" style="edgeStyle=orthogonalEdgeStyle;rounded=0;orthogonalLoop=1;jettySize=auto;html=1;exitX=1;exitY=0.5;exitDx=0;exitDy=0;entryX=0.5;entryY=0;entryDx=0;entryDy=0;" edge="1" parent="1" source="6_yCp3oKkFOMt5muPyzv-49" target="6_yCp3oKkFOMt5muPyzv-51">
          <mxGeometry relative="1" as="geometry" />
        </mxCell>
        <mxCell id="6_yCp3oKkFOMt5muPyzv-49" value="3&#39;" style="ellipse;whiteSpace=wrap;html=1;aspect=fixed;" vertex="1" parent="1">
          <mxGeometry x="429.5" y="648" width="28" height="28" as="geometry" />
        </mxCell>
        <mxCell id="6_yCp3oKkFOMt5muPyzv-50" style="edgeStyle=orthogonalEdgeStyle;rounded=0;orthogonalLoop=1;jettySize=auto;html=1;exitX=0.5;exitY=1;exitDx=0;exitDy=0;entryX=0.5;entryY=0;entryDx=0;entryDy=0;" edge="1" parent="1" source="6_yCp3oKkFOMt5muPyzv-51" target="6_yCp3oKkFOMt5muPyzv-54">
          <mxGeometry relative="1" as="geometry" />
        </mxCell>
        <mxCell id="6_yCp3oKkFOMt5muPyzv-51" value="4" style="ellipse;whiteSpace=wrap;html=1;aspect=fixed;" vertex="1" parent="1">
          <mxGeometry x="481.5" y="699" width="28" height="28" as="geometry" />
        </mxCell>
        <mxCell id="6_yCp3oKkFOMt5muPyzv-52" style="edgeStyle=orthogonalEdgeStyle;rounded=0;orthogonalLoop=1;jettySize=auto;html=1;exitX=1;exitY=0.5;exitDx=0;exitDy=0;entryX=0.5;entryY=1;entryDx=0;entryDy=0;" edge="1" parent="1" source="6_yCp3oKkFOMt5muPyzv-54" target="6_yCp3oKkFOMt5muPyzv-60">
          <mxGeometry relative="1" as="geometry" />
        </mxCell>
        <mxCell id="6_yCp3oKkFOMt5muPyzv-53" style="edgeStyle=orthogonalEdgeStyle;rounded=0;orthogonalLoop=1;jettySize=auto;html=1;exitX=0;exitY=0.5;exitDx=0;exitDy=0;entryX=1;entryY=0.5;entryDx=0;entryDy=0;" edge="1" parent="1" source="6_yCp3oKkFOMt5muPyzv-54" target="6_yCp3oKkFOMt5muPyzv-56">
          <mxGeometry relative="1" as="geometry" />
        </mxCell>
        <mxCell id="6_yCp3oKkFOMt5muPyzv-54" value="5" style="ellipse;whiteSpace=wrap;html=1;aspect=fixed;" vertex="1" parent="1">
          <mxGeometry x="481.5" y="750" width="28" height="28" as="geometry" />
        </mxCell>
        <mxCell id="6_yCp3oKkFOMt5muPyzv-55" style="edgeStyle=orthogonalEdgeStyle;rounded=0;orthogonalLoop=1;jettySize=auto;html=1;exitX=0;exitY=0.5;exitDx=0;exitDy=0;entryX=1;entryY=0.5;entryDx=0;entryDy=0;" edge="1" parent="1" source="6_yCp3oKkFOMt5muPyzv-56" target="6_yCp3oKkFOMt5muPyzv-44">
          <mxGeometry relative="1" as="geometry" />
        </mxCell>
        <mxCell id="6_yCp3oKkFOMt5muPyzv-56" value="6" style="ellipse;whiteSpace=wrap;html=1;aspect=fixed;" vertex="1" parent="1">
          <mxGeometry x="388.5" y="750" width="28" height="28" as="geometry" />
        </mxCell>
        <mxCell id="6_yCp3oKkFOMt5muPyzv-57" style="edgeStyle=orthogonalEdgeStyle;rounded=0;orthogonalLoop=1;jettySize=auto;html=1;exitX=0;exitY=0.5;exitDx=0;exitDy=0;entryX=0.5;entryY=1;entryDx=0;entryDy=0;" edge="1" parent="1" source="6_yCp3oKkFOMt5muPyzv-58" target="6_yCp3oKkFOMt5muPyzv-41">
          <mxGeometry relative="1" as="geometry" />
        </mxCell>
        <mxCell id="6_yCp3oKkFOMt5muPyzv-58" value="2&#39;&#39;" style="ellipse;whiteSpace=wrap;html=1;aspect=fixed;" vertex="1" parent="1">
          <mxGeometry x="378.5" y="699" width="28" height="28" as="geometry" />
        </mxCell>
        <mxCell id="6_yCp3oKkFOMt5muPyzv-59" style="edgeStyle=orthogonalEdgeStyle;rounded=0;orthogonalLoop=1;jettySize=auto;html=1;exitX=0.5;exitY=0;exitDx=0;exitDy=0;entryX=0.5;entryY=0;entryDx=0;entryDy=0;" edge="1" parent="1" source="6_yCp3oKkFOMt5muPyzv-60" target="6_yCp3oKkFOMt5muPyzv-49">
          <mxGeometry relative="1" as="geometry" />
        </mxCell>
        <mxCell id="6_yCp3oKkFOMt5muPyzv-60" value="3&#39;&#39;" style="ellipse;whiteSpace=wrap;html=1;aspect=fixed;" vertex="1" parent="1">
          <mxGeometry x="555.5" y="664" width="28" height="28" as="geometry" />
        </mxCell>
        <mxCell id="6_yCp3oKkFOMt5muPyzv-61" value="&lt;font style=&quot;&quot;&gt;&lt;font style=&quot;font-size: 9px;&quot;&gt;u&lt;/font&gt;&lt;span style=&quot;font-size: 4px;&quot;&gt;currentRow&lt;/span&gt;&lt;br&gt;&lt;/font&gt;&lt;font size=&quot;1&quot; style=&quot;&quot;&gt;d&lt;/font&gt;&lt;font style=&quot;font-size: 4px;&quot;&gt;currentRow&lt;br&gt;&lt;/font&gt;" style="text;html=1;align=center;verticalAlign=middle;resizable=0;points=[];autosize=1;strokeColor=none;fillColor=none;" vertex="1" parent="1">
          <mxGeometry x="341.5" y="689" width="44" height="41" as="geometry" />
        </mxCell>
        <mxCell id="6_yCp3oKkFOMt5muPyzv-62" value="&lt;font style=&quot;font-size: 9px;&quot;&gt;d&lt;/font&gt;&lt;font style=&quot;font-size: 4px;&quot;&gt;currentColumn&lt;/font&gt;" style="text;html=1;align=center;verticalAlign=middle;resizable=0;points=[];autosize=1;strokeColor=none;fillColor=none;" vertex="1" parent="1">
          <mxGeometry x="367.5" y="628" width="49" height="26" as="geometry" />
        </mxCell>
        <mxCell id="6_yCp3oKkFOMt5muPyzv-63" value="&lt;font style=&quot;&quot;&gt;&lt;font style=&quot;font-size: 9px;&quot;&gt;u&lt;/font&gt;&lt;span style=&quot;font-size: 4px;&quot;&gt;currentColumn&lt;/span&gt;&lt;br&gt;&lt;font style=&quot;font-size: 9px;&quot;&gt;u&lt;/font&gt;&lt;/font&gt;&lt;font style=&quot;font-size: 4px;&quot;&gt;dimension&lt;br&gt;&lt;/font&gt;" style="text;html=1;align=center;verticalAlign=middle;resizable=0;points=[];autosize=1;strokeColor=none;fillColor=none;" vertex="1" parent="1">
          <mxGeometry x="449.5" y="639" width="49" height="41" as="geometry" />
        </mxCell>
        <mxCell id="6_yCp3oKkFOMt5muPyzv-64" value="&lt;font style=&quot;&quot;&gt;&lt;font style=&quot;font-size: 9px;&quot;&gt;u&lt;/font&gt;&lt;span style=&quot;font-size: 4px;&quot;&gt;currentColumn&lt;/span&gt;&lt;br&gt;&lt;/font&gt;&lt;font size=&quot;1&quot; style=&quot;&quot;&gt;d&lt;/font&gt;&lt;font style=&quot;font-size: 4px;&quot;&gt;currentColumn&lt;br&gt;&lt;/font&gt;" style="text;html=1;align=center;verticalAlign=middle;resizable=0;points=[];autosize=1;strokeColor=none;fillColor=none;" vertex="1" parent="1">
          <mxGeometry x="575.5" y="656" width="50" height="41" as="geometry" />
        </mxCell>
        <mxCell id="6_yCp3oKkFOMt5muPyzv-65" value="&lt;font style=&quot;font-size: 9px;&quot;&gt;d&lt;/font&gt;&lt;font style=&quot;font-size: 4px;&quot;&gt;candidate&lt;/font&gt;" style="text;html=1;align=center;verticalAlign=middle;resizable=0;points=[];autosize=1;strokeColor=none;fillColor=none;" vertex="1" parent="1">
          <mxGeometry x="504.5" y="699" width="40" height="26" as="geometry" />
        </mxCell>
        <mxCell id="6_yCp3oKkFOMt5muPyzv-66" value="&lt;font style=&quot;&quot;&gt;&lt;font style=&quot;font-size: 9px;&quot;&gt;u&lt;/font&gt;&lt;span style=&quot;font-size: 4px;&quot;&gt;currentColumn&lt;/span&gt;&lt;br&gt;&lt;/font&gt;&lt;font style=&quot;&quot;&gt;&lt;font style=&quot;font-size: 9px;&quot;&gt;u&lt;/font&gt;&lt;span style=&quot;font-size: 4px;&quot;&gt;currentRow&lt;/span&gt;&lt;br&gt;&lt;font style=&quot;font-size: 9px;&quot;&gt;d&lt;/font&gt;&lt;/font&gt;&lt;font style=&quot;font-size: 4px;&quot;&gt;candidate&lt;br&gt;&lt;/font&gt;" style="text;html=1;align=center;verticalAlign=middle;resizable=0;points=[];autosize=1;strokeColor=none;fillColor=none;" vertex="1" parent="1">
          <mxGeometry x="471" y="766" width="49" height="55" as="geometry" />
        </mxCell>
        <mxCell id="4GCg0aol0o4UazOo1h-q-1" value="Graphes de flot de contrôle" style="ellipse;whiteSpace=wrap;html=1;" vertex="1" parent="1">
          <mxGeometry x="346" y="140" width="120" height="80" as="geometry" />
        </mxCell>
        <mxCell id="ufFTGtecHpyP_icHBWBV-1" value="Definitions et utilisations" style="ellipse;whiteSpace=wrap;html=1;" vertex="1" parent="1">
          <mxGeometry x="354" y="492" width="120" height="80" as="geometry" />
        </mxCell>
        <mxCell id="ufFTGtecHpyP_icHBWBV-2" value="IsSolved()" style="ellipse;whiteSpace=wrap;html=1;" vertex="1" parent="1">
          <mxGeometry x="306.5" y="17" width="199" height="80" as="geometry" />
        </mxCell>
      </root>
    </mxGraphModel>
  </diagram>
  <diagram name="Copie de Page-2" id="TZ_saPkHLZyi755nzHOx">
    <mxGraphModel dx="954" dy="676" grid="0" gridSize="10" guides="1" tooltips="0" connect="1" arrows="1" fold="1" page="1" pageScale="1" pageWidth="827" pageHeight="1169" math="0" shadow="0">
      <root>
        <mxCell id="QY2zYr3bst-esToA7MPu-0" />
        <mxCell id="QY2zYr3bst-esToA7MPu-1" parent="QY2zYr3bst-esToA7MPu-0" />
        <mxCell id="QY2zYr3bst-esToA7MPu-68" value="Graphes de flot de contrôle" style="ellipse;whiteSpace=wrap;html=1;" vertex="1" parent="QY2zYr3bst-esToA7MPu-1">
          <mxGeometry x="346" y="140" width="120" height="80" as="geometry" />
        </mxCell>
        <mxCell id="QY2zYr3bst-esToA7MPu-69" value="Definitions et utilisations" style="ellipse;whiteSpace=wrap;html=1;" vertex="1" parent="QY2zYr3bst-esToA7MPu-1">
          <mxGeometry x="354" y="492" width="120" height="80" as="geometry" />
        </mxCell>
        <mxCell id="QY2zYr3bst-esToA7MPu-70" value="&lt;div style=&quot;font-family: Menlo, Monaco, &amp;quot;Courier New&amp;quot;, monospace; line-height: 18px;&quot;&gt;parseSolvedBoxesFromInputString()&lt;br&gt;&lt;/div&gt;" style="ellipse;whiteSpace=wrap;html=1;" vertex="1" parent="QY2zYr3bst-esToA7MPu-1">
          <mxGeometry x="263.75" y="17" width="277.5" height="80" as="geometry" />
        </mxCell>
        <mxCell id="4Gjp7Y1O4ZtoqTISVXvs-0" style="edgeStyle=orthogonalEdgeStyle;rounded=0;orthogonalLoop=1;jettySize=auto;html=1;exitX=0.5;exitY=1;exitDx=0;exitDy=0;entryX=0.5;entryY=0;entryDx=0;entryDy=0;" edge="1" parent="QY2zYr3bst-esToA7MPu-1" source="4Gjp7Y1O4ZtoqTISVXvs-1" target="4Gjp7Y1O4ZtoqTISVXvs-3">
          <mxGeometry relative="1" as="geometry">
            <mxPoint x="353.5000000000001" y="266.0000000000001" as="targetPoint" />
          </mxGeometry>
        </mxCell>
        <mxCell id="4Gjp7Y1O4ZtoqTISVXvs-1" value="1" style="ellipse;whiteSpace=wrap;html=1;aspect=fixed;strokeColor=#00CC00;" vertex="1" parent="QY2zYr3bst-esToA7MPu-1">
          <mxGeometry x="338.5" y="240" width="28" height="28" as="geometry" />
        </mxCell>
        <mxCell id="4Gjp7Y1O4ZtoqTISVXvs-2" style="edgeStyle=orthogonalEdgeStyle;rounded=0;orthogonalLoop=1;jettySize=auto;html=1;exitX=0.5;exitY=1;exitDx=0;exitDy=0;entryX=0.5;entryY=0;entryDx=0;entryDy=0;" edge="1" parent="QY2zYr3bst-esToA7MPu-1" source="4Gjp7Y1O4ZtoqTISVXvs-3" target="4Gjp7Y1O4ZtoqTISVXvs-6">
          <mxGeometry relative="1" as="geometry">
            <mxPoint x="352.5" y="328" as="targetPoint" />
          </mxGeometry>
        </mxCell>
        <mxCell id="4Gjp7Y1O4ZtoqTISVXvs-3" value="5" style="ellipse;whiteSpace=wrap;html=1;aspect=fixed;" vertex="1" parent="QY2zYr3bst-esToA7MPu-1">
          <mxGeometry x="338.5" y="293" width="28" height="28" as="geometry" />
        </mxCell>
        <mxCell id="4Gjp7Y1O4ZtoqTISVXvs-4" style="edgeStyle=orthogonalEdgeStyle;rounded=0;orthogonalLoop=1;jettySize=auto;html=1;exitX=1;exitY=0.5;exitDx=0;exitDy=0;entryX=0;entryY=0.5;entryDx=0;entryDy=0;" edge="1" parent="QY2zYr3bst-esToA7MPu-1" source="4Gjp7Y1O4ZtoqTISVXvs-6" target="4Gjp7Y1O4ZtoqTISVXvs-12">
          <mxGeometry relative="1" as="geometry" />
        </mxCell>
        <mxCell id="4Gjp7Y1O4ZtoqTISVXvs-5" style="edgeStyle=orthogonalEdgeStyle;rounded=0;orthogonalLoop=1;jettySize=auto;html=1;exitX=0;exitY=0.5;exitDx=0;exitDy=0;entryX=1;entryY=0.5;entryDx=0;entryDy=0;" edge="1" parent="QY2zYr3bst-esToA7MPu-1" source="4Gjp7Y1O4ZtoqTISVXvs-6" target="4Gjp7Y1O4ZtoqTISVXvs-8">
          <mxGeometry relative="1" as="geometry" />
        </mxCell>
        <mxCell id="4Gjp7Y1O4ZtoqTISVXvs-6" value="5&#39;" style="ellipse;whiteSpace=wrap;html=1;aspect=fixed;" vertex="1" parent="QY2zYr3bst-esToA7MPu-1">
          <mxGeometry x="338.5" y="331" width="28" height="28" as="geometry" />
        </mxCell>
        <mxCell id="4Gjp7Y1O4ZtoqTISVXvs-7" style="edgeStyle=orthogonalEdgeStyle;rounded=0;orthogonalLoop=1;jettySize=auto;html=1;exitX=0.5;exitY=0;exitDx=0;exitDy=0;entryX=0.5;entryY=1;entryDx=0;entryDy=0;" edge="1" parent="QY2zYr3bst-esToA7MPu-1" source="4Gjp7Y1O4ZtoqTISVXvs-8" target="4Gjp7Y1O4ZtoqTISVXvs-9">
          <mxGeometry relative="1" as="geometry" />
        </mxCell>
        <mxCell id="4Gjp7Y1O4ZtoqTISVXvs-8" value="17" style="ellipse;whiteSpace=wrap;html=1;aspect=fixed;" vertex="1" parent="QY2zYr3bst-esToA7MPu-1">
          <mxGeometry x="297.5" y="331" width="28" height="28" as="geometry" />
        </mxCell>
        <mxCell id="4Gjp7Y1O4ZtoqTISVXvs-9" value="End" style="ellipse;whiteSpace=wrap;html=1;aspect=fixed;strokeColor=#CC0000;" vertex="1" parent="QY2zYr3bst-esToA7MPu-1">
          <mxGeometry x="297.5" y="240" width="28" height="28" as="geometry" />
        </mxCell>
        <mxCell id="4Gjp7Y1O4ZtoqTISVXvs-10" style="edgeStyle=orthogonalEdgeStyle;rounded=0;orthogonalLoop=1;jettySize=auto;html=1;exitX=1;exitY=0.5;exitDx=0;exitDy=0;entryX=0;entryY=0.5;entryDx=0;entryDy=0;" edge="1" parent="QY2zYr3bst-esToA7MPu-1" source="4Gjp7Y1O4ZtoqTISVXvs-12" target="4Gjp7Y1O4ZtoqTISVXvs-14">
          <mxGeometry relative="1" as="geometry" />
        </mxCell>
        <mxCell id="4Gjp7Y1O4ZtoqTISVXvs-11" style="edgeStyle=orthogonalEdgeStyle;rounded=0;orthogonalLoop=1;jettySize=auto;html=1;exitX=0.5;exitY=1;exitDx=0;exitDy=0;entryX=0.5;entryY=0;entryDx=0;entryDy=0;" edge="1" parent="QY2zYr3bst-esToA7MPu-1" source="4Gjp7Y1O4ZtoqTISVXvs-12" target="4Gjp7Y1O4ZtoqTISVXvs-23">
          <mxGeometry relative="1" as="geometry" />
        </mxCell>
        <mxCell id="4Gjp7Y1O4ZtoqTISVXvs-12" value="6" style="ellipse;whiteSpace=wrap;html=1;aspect=fixed;" vertex="1" parent="QY2zYr3bst-esToA7MPu-1">
          <mxGeometry x="430.5" y="331" width="28" height="28" as="geometry" />
        </mxCell>
        <mxCell id="4Gjp7Y1O4ZtoqTISVXvs-13" style="edgeStyle=orthogonalEdgeStyle;rounded=0;orthogonalLoop=1;jettySize=auto;html=1;exitX=0.5;exitY=1;exitDx=0;exitDy=0;entryX=1;entryY=0.5;entryDx=0;entryDy=0;" edge="1" parent="QY2zYr3bst-esToA7MPu-1" source="4Gjp7Y1O4ZtoqTISVXvs-14" target="4Gjp7Y1O4ZtoqTISVXvs-23">
          <mxGeometry relative="1" as="geometry" />
        </mxCell>
        <mxCell id="4Gjp7Y1O4ZtoqTISVXvs-14" value="10&lt;br&gt;" style="ellipse;whiteSpace=wrap;html=1;aspect=fixed;" vertex="1" parent="QY2zYr3bst-esToA7MPu-1">
          <mxGeometry x="486.5" y="331" width="28" height="28" as="geometry" />
        </mxCell>
        <mxCell id="4Gjp7Y1O4ZtoqTISVXvs-15" style="edgeStyle=orthogonalEdgeStyle;rounded=0;orthogonalLoop=1;jettySize=auto;html=1;exitX=0.5;exitY=1;exitDx=0;exitDy=0;entryX=0.5;entryY=0;entryDx=0;entryDy=0;" edge="1" parent="QY2zYr3bst-esToA7MPu-1" source="4Gjp7Y1O4ZtoqTISVXvs-17" target="4Gjp7Y1O4ZtoqTISVXvs-19">
          <mxGeometry relative="1" as="geometry" />
        </mxCell>
        <mxCell id="4Gjp7Y1O4ZtoqTISVXvs-16" style="edgeStyle=orthogonalEdgeStyle;rounded=0;orthogonalLoop=1;jettySize=auto;html=1;exitX=0;exitY=0.5;exitDx=0;exitDy=0;entryX=1;entryY=0.5;entryDx=0;entryDy=0;" edge="1" parent="QY2zYr3bst-esToA7MPu-1" source="4Gjp7Y1O4ZtoqTISVXvs-17" target="4Gjp7Y1O4ZtoqTISVXvs-21">
          <mxGeometry relative="1" as="geometry" />
        </mxCell>
        <mxCell id="4Gjp7Y1O4ZtoqTISVXvs-17" value="13" style="ellipse;whiteSpace=wrap;html=1;aspect=fixed;" vertex="1" parent="QY2zYr3bst-esToA7MPu-1">
          <mxGeometry x="382" y="380" width="28" height="28" as="geometry" />
        </mxCell>
        <mxCell id="4Gjp7Y1O4ZtoqTISVXvs-18" style="edgeStyle=orthogonalEdgeStyle;rounded=0;orthogonalLoop=1;jettySize=auto;html=1;exitX=0;exitY=0.5;exitDx=0;exitDy=0;entryX=0.5;entryY=1;entryDx=0;entryDy=0;" edge="1" parent="QY2zYr3bst-esToA7MPu-1" source="4Gjp7Y1O4ZtoqTISVXvs-19" target="4Gjp7Y1O4ZtoqTISVXvs-21">
          <mxGeometry relative="1" as="geometry" />
        </mxCell>
        <mxCell id="4Gjp7Y1O4ZtoqTISVXvs-19" value="14" style="ellipse;whiteSpace=wrap;html=1;aspect=fixed;" vertex="1" parent="QY2zYr3bst-esToA7MPu-1">
          <mxGeometry x="382" y="421" width="28" height="28" as="geometry" />
        </mxCell>
        <mxCell id="4Gjp7Y1O4ZtoqTISVXvs-20" style="edgeStyle=orthogonalEdgeStyle;rounded=0;orthogonalLoop=1;jettySize=auto;html=1;exitX=0.5;exitY=0;exitDx=0;exitDy=0;entryX=0.5;entryY=1;entryDx=0;entryDy=0;" edge="1" parent="QY2zYr3bst-esToA7MPu-1" source="4Gjp7Y1O4ZtoqTISVXvs-21" target="4Gjp7Y1O4ZtoqTISVXvs-6">
          <mxGeometry relative="1" as="geometry" />
        </mxCell>
        <mxCell id="4Gjp7Y1O4ZtoqTISVXvs-21" value="5&#39;&#39;" style="ellipse;whiteSpace=wrap;html=1;aspect=fixed;" vertex="1" parent="QY2zYr3bst-esToA7MPu-1">
          <mxGeometry x="338.5" y="380" width="28" height="28" as="geometry" />
        </mxCell>
        <mxCell id="4Gjp7Y1O4ZtoqTISVXvs-22" style="edgeStyle=orthogonalEdgeStyle;rounded=0;orthogonalLoop=1;jettySize=auto;html=1;exitX=0;exitY=0.5;exitDx=0;exitDy=0;entryX=1;entryY=0.5;entryDx=0;entryDy=0;" edge="1" parent="QY2zYr3bst-esToA7MPu-1" source="4Gjp7Y1O4ZtoqTISVXvs-23" target="4Gjp7Y1O4ZtoqTISVXvs-17">
          <mxGeometry relative="1" as="geometry" />
        </mxCell>
        <mxCell id="4Gjp7Y1O4ZtoqTISVXvs-23" value="12" style="ellipse;whiteSpace=wrap;html=1;aspect=fixed;" vertex="1" parent="QY2zYr3bst-esToA7MPu-1">
          <mxGeometry x="430.5" y="380" width="28" height="28" as="geometry" />
        </mxCell>
        <mxCell id="3C2JnX1YNUnPn2UlgTgi-0" style="edgeStyle=orthogonalEdgeStyle;rounded=0;orthogonalLoop=1;jettySize=auto;html=1;exitX=0.5;exitY=1;exitDx=0;exitDy=0;entryX=0.5;entryY=0;entryDx=0;entryDy=0;" edge="1" parent="QY2zYr3bst-esToA7MPu-1" source="3C2JnX1YNUnPn2UlgTgi-1" target="3C2JnX1YNUnPn2UlgTgi-3">
          <mxGeometry relative="1" as="geometry">
            <mxPoint x="369.0000000000001" y="630.0000000000001" as="targetPoint" />
          </mxGeometry>
        </mxCell>
        <mxCell id="3C2JnX1YNUnPn2UlgTgi-1" value="1" style="ellipse;whiteSpace=wrap;html=1;aspect=fixed;strokeColor=#00CC00;" vertex="1" parent="QY2zYr3bst-esToA7MPu-1">
          <mxGeometry x="354" y="604" width="28" height="28" as="geometry" />
        </mxCell>
        <mxCell id="3C2JnX1YNUnPn2UlgTgi-2" style="edgeStyle=orthogonalEdgeStyle;rounded=0;orthogonalLoop=1;jettySize=auto;html=1;exitX=0.5;exitY=1;exitDx=0;exitDy=0;entryX=0.5;entryY=0;entryDx=0;entryDy=0;" edge="1" parent="QY2zYr3bst-esToA7MPu-1" source="3C2JnX1YNUnPn2UlgTgi-3" target="3C2JnX1YNUnPn2UlgTgi-6">
          <mxGeometry relative="1" as="geometry">
            <mxPoint x="368" y="692" as="targetPoint" />
          </mxGeometry>
        </mxCell>
        <mxCell id="3C2JnX1YNUnPn2UlgTgi-3" value="5" style="ellipse;whiteSpace=wrap;html=1;aspect=fixed;" vertex="1" parent="QY2zYr3bst-esToA7MPu-1">
          <mxGeometry x="354" y="657" width="28" height="28" as="geometry" />
        </mxCell>
        <mxCell id="3C2JnX1YNUnPn2UlgTgi-4" style="edgeStyle=orthogonalEdgeStyle;rounded=0;orthogonalLoop=1;jettySize=auto;html=1;exitX=1;exitY=0.5;exitDx=0;exitDy=0;entryX=0;entryY=0.5;entryDx=0;entryDy=0;" edge="1" parent="QY2zYr3bst-esToA7MPu-1" source="3C2JnX1YNUnPn2UlgTgi-6" target="3C2JnX1YNUnPn2UlgTgi-12">
          <mxGeometry relative="1" as="geometry" />
        </mxCell>
        <mxCell id="3C2JnX1YNUnPn2UlgTgi-5" style="edgeStyle=orthogonalEdgeStyle;rounded=0;orthogonalLoop=1;jettySize=auto;html=1;exitX=0;exitY=0.5;exitDx=0;exitDy=0;entryX=1;entryY=0.5;entryDx=0;entryDy=0;" edge="1" parent="QY2zYr3bst-esToA7MPu-1" source="3C2JnX1YNUnPn2UlgTgi-6" target="3C2JnX1YNUnPn2UlgTgi-8">
          <mxGeometry relative="1" as="geometry" />
        </mxCell>
        <mxCell id="3C2JnX1YNUnPn2UlgTgi-6" value="5&#39;" style="ellipse;whiteSpace=wrap;html=1;aspect=fixed;" vertex="1" parent="QY2zYr3bst-esToA7MPu-1">
          <mxGeometry x="354" y="695" width="28" height="28" as="geometry" />
        </mxCell>
        <mxCell id="3C2JnX1YNUnPn2UlgTgi-7" style="edgeStyle=orthogonalEdgeStyle;rounded=0;orthogonalLoop=1;jettySize=auto;html=1;exitX=0.5;exitY=0;exitDx=0;exitDy=0;entryX=0.5;entryY=1;entryDx=0;entryDy=0;" edge="1" parent="QY2zYr3bst-esToA7MPu-1" source="3C2JnX1YNUnPn2UlgTgi-8" target="3C2JnX1YNUnPn2UlgTgi-9">
          <mxGeometry relative="1" as="geometry" />
        </mxCell>
        <mxCell id="3C2JnX1YNUnPn2UlgTgi-8" value="17" style="ellipse;whiteSpace=wrap;html=1;aspect=fixed;" vertex="1" parent="QY2zYr3bst-esToA7MPu-1">
          <mxGeometry x="268" y="695" width="28" height="28" as="geometry" />
        </mxCell>
        <mxCell id="3C2JnX1YNUnPn2UlgTgi-9" value="End" style="ellipse;whiteSpace=wrap;html=1;aspect=fixed;strokeColor=#CC0000;" vertex="1" parent="QY2zYr3bst-esToA7MPu-1">
          <mxGeometry x="268" y="604" width="28" height="28" as="geometry" />
        </mxCell>
        <mxCell id="3C2JnX1YNUnPn2UlgTgi-10" style="edgeStyle=orthogonalEdgeStyle;rounded=0;orthogonalLoop=1;jettySize=auto;html=1;exitX=1;exitY=0.5;exitDx=0;exitDy=0;entryX=0;entryY=0.5;entryDx=0;entryDy=0;" edge="1" parent="QY2zYr3bst-esToA7MPu-1" source="3C2JnX1YNUnPn2UlgTgi-12" target="3C2JnX1YNUnPn2UlgTgi-14">
          <mxGeometry relative="1" as="geometry" />
        </mxCell>
        <mxCell id="3C2JnX1YNUnPn2UlgTgi-11" style="edgeStyle=orthogonalEdgeStyle;rounded=0;orthogonalLoop=1;jettySize=auto;html=1;exitX=0.5;exitY=1;exitDx=0;exitDy=0;entryX=0.5;entryY=0;entryDx=0;entryDy=0;" edge="1" parent="QY2zYr3bst-esToA7MPu-1" source="3C2JnX1YNUnPn2UlgTgi-12" target="3C2JnX1YNUnPn2UlgTgi-23">
          <mxGeometry relative="1" as="geometry" />
        </mxCell>
        <mxCell id="3C2JnX1YNUnPn2UlgTgi-12" value="6" style="ellipse;whiteSpace=wrap;html=1;aspect=fixed;" vertex="1" parent="QY2zYr3bst-esToA7MPu-1">
          <mxGeometry x="446" y="695" width="28" height="28" as="geometry" />
        </mxCell>
        <mxCell id="3C2JnX1YNUnPn2UlgTgi-13" style="edgeStyle=orthogonalEdgeStyle;rounded=0;orthogonalLoop=1;jettySize=auto;html=1;exitX=0.5;exitY=1;exitDx=0;exitDy=0;entryX=1;entryY=0.5;entryDx=0;entryDy=0;" edge="1" parent="QY2zYr3bst-esToA7MPu-1" source="3C2JnX1YNUnPn2UlgTgi-14" target="3C2JnX1YNUnPn2UlgTgi-23">
          <mxGeometry relative="1" as="geometry" />
        </mxCell>
        <mxCell id="3C2JnX1YNUnPn2UlgTgi-14" value="10&lt;br&gt;" style="ellipse;whiteSpace=wrap;html=1;aspect=fixed;" vertex="1" parent="QY2zYr3bst-esToA7MPu-1">
          <mxGeometry x="502" y="695" width="28" height="28" as="geometry" />
        </mxCell>
        <mxCell id="3C2JnX1YNUnPn2UlgTgi-15" style="edgeStyle=orthogonalEdgeStyle;rounded=0;orthogonalLoop=1;jettySize=auto;html=1;exitX=0.5;exitY=1;exitDx=0;exitDy=0;entryX=0.5;entryY=0;entryDx=0;entryDy=0;" edge="1" parent="QY2zYr3bst-esToA7MPu-1" source="3C2JnX1YNUnPn2UlgTgi-17" target="3C2JnX1YNUnPn2UlgTgi-19">
          <mxGeometry relative="1" as="geometry" />
        </mxCell>
        <mxCell id="3C2JnX1YNUnPn2UlgTgi-16" style="edgeStyle=orthogonalEdgeStyle;rounded=0;orthogonalLoop=1;jettySize=auto;html=1;exitX=0;exitY=0.5;exitDx=0;exitDy=0;entryX=1;entryY=0.5;entryDx=0;entryDy=0;" edge="1" parent="QY2zYr3bst-esToA7MPu-1" source="3C2JnX1YNUnPn2UlgTgi-17" target="3C2JnX1YNUnPn2UlgTgi-21">
          <mxGeometry relative="1" as="geometry" />
        </mxCell>
        <mxCell id="3C2JnX1YNUnPn2UlgTgi-17" value="13" style="ellipse;whiteSpace=wrap;html=1;aspect=fixed;" vertex="1" parent="QY2zYr3bst-esToA7MPu-1">
          <mxGeometry x="397.5" y="744" width="28" height="28" as="geometry" />
        </mxCell>
        <mxCell id="3C2JnX1YNUnPn2UlgTgi-18" style="edgeStyle=orthogonalEdgeStyle;rounded=0;orthogonalLoop=1;jettySize=auto;html=1;exitX=0;exitY=0.5;exitDx=0;exitDy=0;entryX=0.5;entryY=1;entryDx=0;entryDy=0;" edge="1" parent="QY2zYr3bst-esToA7MPu-1" source="3C2JnX1YNUnPn2UlgTgi-19" target="3C2JnX1YNUnPn2UlgTgi-21">
          <mxGeometry relative="1" as="geometry" />
        </mxCell>
        <mxCell id="3C2JnX1YNUnPn2UlgTgi-19" value="14" style="ellipse;whiteSpace=wrap;html=1;aspect=fixed;" vertex="1" parent="QY2zYr3bst-esToA7MPu-1">
          <mxGeometry x="397.5" y="805" width="28" height="28" as="geometry" />
        </mxCell>
        <mxCell id="3C2JnX1YNUnPn2UlgTgi-20" style="edgeStyle=orthogonalEdgeStyle;rounded=0;orthogonalLoop=1;jettySize=auto;html=1;exitX=0.5;exitY=0;exitDx=0;exitDy=0;entryX=0.5;entryY=1;entryDx=0;entryDy=0;" edge="1" parent="QY2zYr3bst-esToA7MPu-1" source="3C2JnX1YNUnPn2UlgTgi-21" target="3C2JnX1YNUnPn2UlgTgi-6">
          <mxGeometry relative="1" as="geometry" />
        </mxCell>
        <mxCell id="3C2JnX1YNUnPn2UlgTgi-21" value="5&#39;&#39;" style="ellipse;whiteSpace=wrap;html=1;aspect=fixed;" vertex="1" parent="QY2zYr3bst-esToA7MPu-1">
          <mxGeometry x="354" y="744" width="28" height="28" as="geometry" />
        </mxCell>
        <mxCell id="3C2JnX1YNUnPn2UlgTgi-22" style="edgeStyle=orthogonalEdgeStyle;rounded=0;orthogonalLoop=1;jettySize=auto;html=1;exitX=0;exitY=0.5;exitDx=0;exitDy=0;entryX=1;entryY=0.5;entryDx=0;entryDy=0;" edge="1" parent="QY2zYr3bst-esToA7MPu-1" source="3C2JnX1YNUnPn2UlgTgi-23" target="3C2JnX1YNUnPn2UlgTgi-17">
          <mxGeometry relative="1" as="geometry" />
        </mxCell>
        <mxCell id="3C2JnX1YNUnPn2UlgTgi-23" value="12" style="ellipse;whiteSpace=wrap;html=1;aspect=fixed;" vertex="1" parent="QY2zYr3bst-esToA7MPu-1">
          <mxGeometry x="446" y="744" width="28" height="28" as="geometry" />
        </mxCell>
        <mxCell id="3C2JnX1YNUnPn2UlgTgi-24" value="&lt;font style=&quot;&quot;&gt;&lt;font size=&quot;1&quot; style=&quot;&quot;&gt;d&lt;/font&gt;&lt;font style=&quot;font-size: 4px;&quot;&gt;solvedBoxes&lt;/font&gt;&lt;br&gt;&lt;/font&gt;&lt;div&gt;&lt;font style=&quot;&quot;&gt;&lt;font size=&quot;1&quot; style=&quot;&quot;&gt;d&lt;/font&gt;&lt;font style=&quot;font-size: 4px;&quot;&gt;row&lt;/font&gt;&lt;/font&gt;&lt;/div&gt;&lt;div&gt;&lt;font style=&quot;&quot;&gt;&lt;font size=&quot;1&quot; style=&quot;&quot;&gt;d&lt;/font&gt;&lt;font style=&quot;font-size: 4px;&quot;&gt;column &lt;br&gt;&lt;/font&gt;&lt;/font&gt;&lt;/div&gt;&lt;div&gt;&lt;font style=&quot;&quot;&gt;&lt;font size=&quot;1&quot; style=&quot;&quot;&gt;d&lt;/font&gt;&lt;font style=&quot;font-size: 4px;&quot;&gt;i&lt;/font&gt;&lt;/font&gt;&lt;br&gt;&lt;/div&gt;" style="text;html=1;align=center;verticalAlign=middle;resizable=0;points=[];autosize=1;strokeColor=none;fillColor=none;" vertex="1" parent="QY2zYr3bst-esToA7MPu-1">
          <mxGeometry x="317" y="623" width="46" height="70" as="geometry" />
        </mxCell>
        <mxCell id="3C2JnX1YNUnPn2UlgTgi-25" value="&lt;font style=&quot;&quot;&gt;&lt;font size=&quot;1&quot; style=&quot;&quot;&gt;d&lt;/font&gt;&lt;font style=&quot;font-size: 4px;&quot;&gt;initialState&lt;/font&gt;&lt;/font&gt;" style="text;html=1;align=center;verticalAlign=middle;resizable=0;points=[];autosize=1;strokeColor=none;fillColor=none;" vertex="1" parent="QY2zYr3bst-esToA7MPu-1">
          <mxGeometry x="377" y="601" width="42" height="26" as="geometry" />
        </mxCell>
        <mxCell id="3C2JnX1YNUnPn2UlgTgi-26" value="&lt;div&gt;&lt;font style=&quot;&quot;&gt;&lt;font size=&quot;1&quot; style=&quot;&quot;&gt;u&lt;/font&gt;&lt;font style=&quot;font-size: 4px;&quot;&gt;i&lt;/font&gt;&lt;/font&gt;&lt;/div&gt;&lt;font style=&quot;&quot;&gt;&lt;font size=&quot;1&quot; style=&quot;&quot;&gt;u&lt;/font&gt;&lt;font style=&quot;font-size: 4px;&quot;&gt;initialState&lt;/font&gt;&lt;/font&gt;" style="text;html=1;align=center;verticalAlign=middle;resizable=0;points=[];autosize=1;strokeColor=none;fillColor=none;" vertex="1" parent="QY2zYr3bst-esToA7MPu-1">
          <mxGeometry x="376" y="685" width="42" height="41" as="geometry" />
        </mxCell>
        <mxCell id="3C2JnX1YNUnPn2UlgTgi-27" value="&lt;font style=&quot;&quot;&gt;&lt;font size=&quot;1&quot; style=&quot;&quot;&gt;d&lt;/font&gt;&lt;font style=&quot;font-size: 4px;&quot;&gt;currentValue&lt;/font&gt;&lt;br&gt;&lt;/font&gt;&lt;div&gt;&lt;font style=&quot;&quot;&gt;&lt;font size=&quot;1&quot; style=&quot;&quot;&gt;d&lt;/font&gt;&lt;font style=&quot;font-size: 4px;&quot;&gt;box&lt;/font&gt;&lt;/font&gt;&lt;/div&gt;&lt;div&gt;&lt;font style=&quot;&quot;&gt;&lt;font size=&quot;1&quot; style=&quot;&quot;&gt;u&lt;/font&gt;&lt;font style=&quot;font-size: 4px;&quot;&gt;initialState &lt;br&gt;&lt;/font&gt;&lt;/font&gt;&lt;/div&gt;&lt;div&gt;&lt;font style=&quot;&quot;&gt;&lt;font size=&quot;1&quot; style=&quot;&quot;&gt;u&lt;/font&gt;&lt;font style=&quot;font-size: 4px;&quot;&gt;dimension &lt;br&gt;&lt;/font&gt;&lt;/font&gt;&lt;/div&gt;&lt;div&gt;&lt;font style=&quot;&quot;&gt;&lt;font size=&quot;1&quot; style=&quot;&quot;&gt;u&lt;/font&gt;&lt;font style=&quot;font-size: 4px;&quot;&gt;row &lt;br&gt;&lt;/font&gt;&lt;/font&gt;&lt;/div&gt;&lt;div&gt;&lt;font style=&quot;&quot;&gt;&lt;font size=&quot;1&quot; style=&quot;&quot;&gt;u&lt;/font&gt;&lt;font style=&quot;font-size: 4px;&quot;&gt;column &lt;br&gt;&lt;/font&gt;&lt;/font&gt;&lt;/div&gt;&lt;div&gt;&lt;font style=&quot;&quot;&gt;&lt;font size=&quot;1&quot; style=&quot;&quot;&gt;u&lt;/font&gt;&lt;font style=&quot;font-size: 4px;&quot;&gt;currentValue&lt;br&gt;&lt;/font&gt;&lt;/font&gt;&lt;/div&gt;&amp;nbsp;&lt;font size=&quot;1&quot;&gt;u&lt;/font&gt;&lt;font style=&quot;&quot;&gt;&lt;span style=&quot;font-size: 4px;&quot;&gt;box&lt;/span&gt;&lt;br&gt;&lt;font style=&quot;font-size: 9px;&quot;&gt;u&lt;/font&gt;&lt;font style=&quot;&quot;&gt;&lt;font style=&quot;font-size: 4px;&quot;&gt;solvedBoxes&lt;/font&gt;&lt;br&gt;&lt;/font&gt;&lt;font style=&quot;&quot;&gt;&lt;font style=&quot;font-size: 9px;&quot;&gt;u&lt;/font&gt;&lt;font style=&quot;font-size: 4px;&quot;&gt;i&lt;/font&gt;&lt;/font&gt;&lt;br&gt;&lt;/font&gt;" style="text;html=1;align=center;verticalAlign=middle;resizable=0;points=[];autosize=1;strokeColor=none;fillColor=none;" vertex="1" parent="QY2zYr3bst-esToA7MPu-1">
          <mxGeometry x="523" y="628" width="46" height="156" as="geometry" />
        </mxCell>
        <mxCell id="3C2JnX1YNUnPn2UlgTgi-28" value="&lt;font style=&quot;&quot;&gt;&lt;font size=&quot;1&quot; style=&quot;&quot;&gt;u&lt;/font&gt;&lt;font style=&quot;&quot;&gt;&lt;span style=&quot;font-size: 4px;&quot;&gt;initialState &lt;/span&gt;&lt;font size=&quot;1&quot;&gt;u&lt;/font&gt;&lt;/font&gt;&lt;font style=&quot;font-size: 4px;&quot;&gt;i&lt;br&gt;&lt;/font&gt;&lt;/font&gt;" style="text;html=1;align=center;verticalAlign=middle;resizable=0;points=[];autosize=1;strokeColor=none;fillColor=none;" vertex="1" parent="QY2zYr3bst-esToA7MPu-1">
          <mxGeometry x="435" y="673" width="50" height="26" as="geometry" />
        </mxCell>
        <mxCell id="3C2JnX1YNUnPn2UlgTgi-29" value="&lt;div&gt;&lt;font style=&quot;&quot;&gt;&lt;font size=&quot;1&quot; style=&quot;&quot;&gt;d&lt;/font&gt;&lt;font style=&quot;font-size: 4px;&quot;&gt;column&lt;/font&gt;&lt;/font&gt;&lt;/div&gt;&lt;div&gt;&lt;font style=&quot;&quot;&gt;&lt;font size=&quot;1&quot; style=&quot;&quot;&gt;d&lt;/font&gt;&lt;font style=&quot;font-size: 4px;&quot;&gt;column &lt;br&gt;&lt;/font&gt;&lt;/font&gt;&lt;/div&gt;&lt;div&gt;&lt;font style=&quot;&quot;&gt;&lt;font size=&quot;1&quot; style=&quot;&quot;&gt;d&lt;/font&gt;&lt;font style=&quot;font-size: 4px;&quot;&gt;dimension&lt;/font&gt;&lt;/font&gt;&lt;/div&gt;" style="text;html=1;align=center;verticalAlign=middle;resizable=0;points=[];autosize=1;strokeColor=none;fillColor=none;" vertex="1" parent="QY2zYr3bst-esToA7MPu-1">
          <mxGeometry x="439" y="766" width="42" height="55" as="geometry" />
        </mxCell>
        <mxCell id="3C2JnX1YNUnPn2UlgTgi-30" value="&lt;div&gt;&lt;font style=&quot;&quot;&gt;&lt;font size=&quot;1&quot; style=&quot;&quot;&gt;d&lt;/font&gt;&lt;font style=&quot;font-size: 4px;&quot;&gt;row&lt;/font&gt;&lt;/font&gt;&lt;/div&gt;&lt;font style=&quot;&quot;&gt;&lt;font size=&quot;1&quot; style=&quot;&quot;&gt;u&lt;/font&gt;&lt;font style=&quot;font-size: 4px;&quot;&gt;row&lt;/font&gt;&lt;/font&gt;" style="text;html=1;align=center;verticalAlign=middle;resizable=0;points=[];autosize=1;strokeColor=none;fillColor=none;" vertex="1" parent="QY2zYr3bst-esToA7MPu-1">
          <mxGeometry x="394.5" y="825" width="30" height="41" as="geometry" />
        </mxCell>
        <mxCell id="3C2JnX1YNUnPn2UlgTgi-31" value="&lt;div&gt;&lt;font style=&quot;&quot;&gt;&lt;font size=&quot;1&quot; style=&quot;&quot;&gt;d&lt;/font&gt;&lt;font style=&quot;font-size: 4px;&quot;&gt;i&lt;/font&gt;&lt;/font&gt;&lt;/div&gt;&lt;font style=&quot;&quot;&gt;&lt;font size=&quot;1&quot; style=&quot;&quot;&gt;u&lt;/font&gt;&lt;font style=&quot;font-size: 4px;&quot;&gt;i&lt;/font&gt;&lt;/font&gt;" style="text;html=1;align=center;verticalAlign=middle;resizable=0;points=[];autosize=1;strokeColor=none;fillColor=none;" vertex="1" parent="QY2zYr3bst-esToA7MPu-1">
          <mxGeometry x="334" y="737.5" width="24" height="41" as="geometry" />
        </mxCell>
        <mxCell id="3C2JnX1YNUnPn2UlgTgi-32" value="&lt;div&gt;&lt;/div&gt;&lt;font style=&quot;&quot;&gt;&lt;font size=&quot;1&quot; style=&quot;&quot;&gt;u&lt;/font&gt;&lt;span style=&quot;font-size: 4px;&quot;&gt;column&lt;/span&gt;&lt;/font&gt;" style="text;html=1;align=center;verticalAlign=middle;resizable=0;points=[];autosize=1;strokeColor=none;fillColor=none;" vertex="1" parent="QY2zYr3bst-esToA7MPu-1">
          <mxGeometry x="394.5" y="723" width="36" height="26" as="geometry" />
        </mxCell>
        <mxCell id="3C2JnX1YNUnPn2UlgTgi-33" value="&lt;div&gt;&lt;/div&gt;&lt;font style=&quot;&quot;&gt;&lt;font size=&quot;1&quot; style=&quot;&quot;&gt;u&lt;/font&gt;&lt;span style=&quot;font-size: 4px;&quot;&gt;solvedBoxes&lt;/span&gt;&lt;/font&gt;" style="text;html=1;align=center;verticalAlign=middle;resizable=0;points=[];autosize=1;strokeColor=none;fillColor=none;" vertex="1" parent="QY2zYr3bst-esToA7MPu-1">
          <mxGeometry x="259" y="715" width="46" height="26" as="geometry" />
        </mxCell>
      </root>
    </mxGraphModel>
  </diagram>
</mxfile>
